<?xml version="1.0" standalone="no"?><!DOCTYPE svg PUBLIC "-//W3C//DTD SVG 1.1//EN" "http://www.w3.org/Graphics/SVG/1.1/DTD/svg11.dtd"><svg t="1738761567828" class="icon" viewBox="0 0 1024 1024" version="1.1" xmlns="http://www.w3.org/2000/svg" p-id="4019" xmlns:xlink="http://www.w3.org/1999/xlink" width="200" height="200"><path d="M249.621943 950.506057s156.768549-7.835063 260.953234-8.78592c115.758811-1.062034 300.163657 8.78592 300.163657 8.78592l191.318309 21.632732s-298.896823 17.712274-491.481966 17.577691C321.682286 989.584823 46.811429 972.138789 46.811429 972.138789l202.810514-21.632732z" fill="#000000" opacity=".5" p-id="4020"></path><path d="M151.36768 174.431086c-14.789486 75.773074-13.800594 172.251429-8.051566 247.217005l0.400823 5.210698-2.995931 4.286171c-56.241006 80.480549-74.204891 173.246171-60.582766 237.2608 27.656777 129.992411 142.189714 193.96608 207.453623 220.554971 52.908617 21.556663 144.661943 43.06944 246.310034 41.937189 101.586651-1.129326 211.657874-24.848091 302.606629-92.20096 58.215863-43.1104 91.370057-117.830217 98.24256-196.476343 6.878354-78.698789-12.846811-158.260663-56.516023-210.0224l-3.750766-4.447086 0.32768-5.810468c10.953874-193.644251-11.413211-286.936503-40.164206-329.956206-13.917623-20.825234-29.134263-29.578971-43.063588-32.917211-14.41792-3.458194-28.996754-1.480411-41.805532 1.890011-6.556526 1.726171-17.87904 8.572343-32.981577 21.15584-14.52032 12.100754-30.880914 28.069303-47.259063 45.693806-32.867474 35.357257-64.667063 76.127086-80.948662 103.409371l-5.79584 9.713372-10.860252-3.165623c-22.510446-6.562377-51.597897-9.575863-79.693531-10.052754-28.063451-0.473966-53.909211 1.600366-69.640777 4.622628l-10.757852 2.065554-5.008823-9.742628c-34.965211-67.990674-73.198446-109.75232-104.401188-134.603337-31.741074-25.284023-55.442286-32.519314-61.036252-33.072275-23.508114-2.323017-41.495406 7.366949-56.220525 27.384686-15.272229 20.757943-26.387017 52.036754-33.806629 90.065189z m10.24-107.402972c19.584731-26.624 46.928457-42.692023 82.666057-39.163611 13.33248 1.316571 42.279497 12.138789 76.384549 39.304046 33.092754 26.360686 71.811657 68.666514 107.23328 134.670628 17.63328-2.434194 40.763977-3.7888 64.842605-3.382126 25.401051 0.433006 52.779886 2.832091 76.565943 8.390949 18.601691-28.81536 48.5376-66.39616 78.80704-98.962286 16.893074-18.171611 34.172343-35.093943 49.962423-48.25088 15.210789-12.671269 30.872137-23.446674 44.266057-26.969234 14.985509-3.943863 34.965211-7.109486 56.068389-2.048 21.588846 5.175589 42.852937 18.601691 60.571063 45.111589 34.178194 51.141486 55.609051 151.648549 45.3632 342.156434 47.244434 59.116983 66.735543 144.767269 59.558765 226.883291-7.366949 84.298606-43.125029 167.933074-109.974674 217.442012-97.435063 72.15104-214.17984 96.768-319.695726 97.941211-105.448594 1.176137-201.07264-21.035886-257.673508-44.096366-67.238766-27.393463-194.176731-96.533943-225.03424-241.558674-15.330743-72.063269 4.499749-170.832457 62.23872-255.783497-5.479863-75.220114-6.290286-172.078811 8.894171-249.885257 7.738514-39.663909 19.912411-75.913509 38.95296-101.800229z" fill="#7C4000" p-id="4021"></path><path d="M242.834286 54.125714c-115.744183-11.445394-117.920914 223.328549-106.615955 370.866469-56.793966 81.355337-75.71456 176.049006-61.445851 243.182446 28.578377 134.465829 146.516846 199.551269 211.233646 225.947062 106.96704 43.625326 366.074149 85.515703 550.089874-50.904502 122.169051-90.568411 134.632594-309.704411 43.177691-418.225006C900.707474 45.717211 801.821257 44.210469 747.52 58.514286c-38.979291 10.269257-135.033417 121.311817-168.228571 177.005714-47.428754-13.838629-130.60096-11.559497-163.84-5.169737C345.409829 94.006126 261.321874 55.954286 242.834286 54.125714z" fill="#FBAF5E" p-id="4022"></path><path d="M301.348571 560.274286c41.63584 8.76544 62.902857 6.609189 78.994286-2.925715 26.331429-12.67712 55.445211-42.422857 122.88-42.422857 73.142857 0 106.788571 27.794286 128.731429 42.422857 7.753143 5.169737 33.645714 9.210149 57.051428 7.314286 54.125714-4.388571 122.88-98.011429 206.262857-24.868571 31.451429 27.589486 49.236846 161.75104-32.182857 266.24-87.771429 112.642926-276.48 125.805714-345.234285 125.805714-136.115931 0-258.925714-38.034286-311.588572-80.457143S61.053806 677.653943 102.4 588.068571c52.662857-114.102857 171.154286-33.645714 198.948571-27.794285z" fill="#FFFFFF" p-id="4023"></path><path d="M670.813623 667.884983a11.702857 11.702857 0 0 0-22.162286-7.524937c-1.234651 3.633737-4.373943 8.250514-9.845028 13.200823-5.359909 4.850834-12.355291 9.473463-20.23424 13.27104-16.126537 7.779474-33.748114 11.10016-46.466195 8.15104-38.309303-8.882469-77.013577-13.727451-125.41952-0.22528-20.576549 5.740251-36.489509 0.476891-48.382537-7.539566-12.255817-8.259291-20.164023-19.464777-23.253577-24.619886a11.702857 11.702857 0 1 0-20.076251 12.030537c4.078446 6.805211 14.119497 21.129509 30.251885 32.001463 10.681783 7.197257 24.058149 12.864366 39.857006 13.818149 0.415451 0.181394 0.848457 0.333531 1.301943 0.45056 57.194789 15.0528 96.715337 14.959177 165.188754-1.41312 0.763611-0.18432 1.480411-0.459337 2.138697-0.816275 12.16512-1.61792 24.333166-5.596891 35.029577-10.754925 9.56416-4.613851 18.505143-10.42432 25.769692-16.9984 7.156297-6.477531 13.329554-14.280411 16.30208-23.031223z m-133.614446 44.19584c-20.19328-2.893531-40.690834-3.417234-63.388526 0.503223 20.626286 2.595109 40.503589 2.475154 63.388526-0.503223zM610.084571 494.71488c-2.33472 13.18912 9.101897 10.752 24.058149 7.565897 9.479314-2.018743 20.371749-4.34176 30.067566-3.177326 15.99488 1.919269 29.47072 6.357577 39.816045 9.763109 13.312 4.38272 21.439634 7.059749 23.086812 0.476891 1.462857-13.165714-22.721097-31.404617-50.74944-36.363702-28.028343-4.962011-62.466926 0.190171-66.279132 21.735131zM406.674286 495.908571c2.33472 13.18912-9.101897 10.752-24.058149 7.565898-9.479314-2.018743-20.371749-4.34176-30.067566-3.177326-15.99488 1.919269-29.47072 6.357577-39.818971 9.766034-13.309074 4.38272-21.439634 7.059749-23.083886 0.473966-1.462857-13.165714 22.721097-31.404617 50.74944-36.363703 28.028343-4.962011 62.464 0.190171 66.279132 21.735131z m105.928411 143.17568c33.604754 0 60.84608-31.074011 60.84608-52.730148 0-21.656137-27.241326-33.358994-60.84608-33.358994-33.601829 0-60.843154 11.702857-60.843154 33.358994 0 21.656137 27.241326 52.730149 60.843154 52.730148z" fill="#5A2F00" p-id="4024"></path><path d="M492.649326 573.715017c0.816274 2.483931-3.408457 6.105966-9.435429 8.0896-6.029897 1.983634-11.579977 1.579886-12.396251-0.90112-0.8192-2.483931 3.405531-6.10304 9.435428-8.0896 6.029897-1.983634 11.579977-1.579886 12.396252 0.90112z" fill="#FFFFFF" opacity=".6" p-id="4025"></path><path d="M408.137143 450.56c16.966217 0 30.72-13.753783 30.72-30.72s-13.753783-30.72-30.72-30.72-30.72 13.753783-30.72 30.72 13.753783 30.72 30.72 30.72z m216.502857 0c16.966217 0 30.72-13.753783 30.72-30.72s-13.753783-30.72-30.72-30.72-30.72 13.753783-30.72 30.72 13.753783 30.72 30.72 30.72z" fill="#FFFFFF" p-id="4026"></path><path d="M779.702857 552.96c31.509943 0 57.051429-10.479909 57.051429-23.405714s-25.541486-23.405714-57.051429-23.405715-57.051429 10.479909-57.051428 23.405715 25.541486 23.405714 57.051428 23.405714z m-535.405714 0c31.509943 0 57.051429-10.479909 57.051428-23.405714s-25.541486-23.405714-57.051428-23.405715-57.051429 10.479909-57.051429 23.405715 25.541486 23.405714 57.051429 23.405714z" fill="#FF8F8E" p-id="4027"></path><path d="M685.576777 789.860937c7.805806-3.955566 13.446583-9.058011 17.884892-13.43488 1.243429-1.2288 2.33472-2.328869 3.323611-3.329463l0.002926-0.002925c2.858423-2.890606 4.868389-4.918126 7.273325-6.638446 2.554149-1.828571 5.03808-2.849646 8.736183-2.843794 4.151589 0.005851 10.579383 1.322423 20.72576 5.994788 18.666057 8.595749 35.178789 5.965531 48.008046 3.923383l0.649509-0.105326c13.314926-2.115291 22.062811-3.218286 31.749851 2.048 7.551269 4.107703 10.275109 9.479314 14.938697 18.671909 0.523703 1.026926 1.067886 2.103589 1.647177 3.229988 5.85728 11.392731 14.025874 24.365349 34.842332 32.832366 15.079131 6.132297 24.245394 15.48288 29.303954 26.094446 5.152183 10.801737 6.4512 23.780206 4.119406 37.475474-0.9216 5.409646-5.184366 15.839817-13.745006 28.484754-8.367543 12.355291-20.231314 25.92768-35.28704 37.770972-29.944686 23.554926-72.192 40.117394-125.349303 27.346651-54.590903-13.115977-85.416229-39.614171-101.531063-67.013485-16.32256-27.753326-18.069211-57.26208-13.080868-76.981395 5.032229-19.891931 13.028206-28.332617 22.633325-34.154788 5.295543-3.209509 11.348846-5.769509 18.771383-8.756663l2.141623-0.857234c6.714514-2.691657 14.336-5.746103 22.24128-9.754332z m67.736137-41.515886c-11.717486-5.395017-21.638583-8.127634-30.485943-8.139337-9.300846-0.011703-16.468846 2.981303-22.38464 7.211886-4.192549 2.998857-8.086674 6.951497-11.228891 10.140526l-0.008777 0.011703c-0.775314 0.787017-1.506743 1.527223-2.182583 2.194285-3.832686 3.782949-7.437166 6.892983-12.027611 9.221852-6.936869 3.513783-13.616274 6.193737-20.424412 8.926354l-2.112366 0.848457c-7.33184 2.94912-15.041097 6.132297-22.168137 10.453577-15.248823 9.242331-26.764434 23.031223-33.192228 48.429349-6.468754 25.573669-3.905829 61.422446 15.596983 94.585417 19.713463 33.516983 56.232229 63.490926 116.241554 77.908846 61.445851 14.760229 110.87872-4.646034 145.28512-31.711817 17.12128-13.467063 30.600046-28.868023 40.196388-43.043109 9.40032-13.888366 15.714011-27.548526 17.440183-37.680274 2.957897-17.38752 1.579886-35.436251-6.067931-51.475017-7.735589-16.226011-21.492297-29.520457-41.612434-37.70368-13.548983-5.50912-18.282789-12.975543-22.843978-21.85216-0.497371-0.968411-1.006446-1.992411-1.533074-3.057372l-0.008777-0.017554c-4.420754-8.926354-10.351177-20.895451-24.681326-28.686629-17.112503-9.303771-33.145417-6.746697-45.743543-4.736731l-0.863085 0.137508c-13.118903 2.086034-23.317943 3.50208-35.190492-1.96608z m-612.866925 193.3312c-0.321829-27.408091 6.193737-66.056777 25.424457-93.628708 9.4208-13.502171 21.670766-24.066926 37.56032-29.821806 15.907109-5.760731 36.744046-7.159223 64.093623-0.125806 55.56224 14.289189 85.11488 42.247314 100.398811 67.446492 7.738514 12.756114 11.942766 25.014857 13.917623 34.79552 0.988891 4.891794 1.395566 9.040457 1.445303 12.200228 0.049737 3.177326-0.272091 4.672366-0.3072 4.830355l-0.002926 0.014628c-2.583406 8.077897-5.699291 14.312594-10.090789 17.627429-3.13344 2.366903-9.827474 5.412571-25.597074-0.500297l-13.288594-4.982492-5.383314 13.130606c-4.011154 9.780663-11.498057 20.085029-19.8656 24.008411-3.66592 1.717394-7.601006 2.29376-12.320183 0.968412-5.0176-1.407269-11.995429-5.286766-20.667246-14.552503l-9.698743-10.359954-10.6496 9.376914c-6.044526 5.3248-15.389257 10.266331-23.885531 10.327771a19.090286 19.090286 0 0 1-11.430766-3.548891c-3.856091-2.685806-8.434834-7.671223-12.756114-16.884297l-6.220069-13.253486-13.247634 6.22592c-10.187337 4.789394-23.990857 8.484571-34.020206 7.001234-4.581669-0.678766-7.375726-2.27328-9.172114-4.379794-1.831497-2.153326-4.128183-6.61504-4.236434-15.915886z m134.363428-151.911862c-31.802514-8.177371-58.79808-7.20896-81.340708 0.950857-22.557257 8.168594-39.380114 23.08096-51.592046 40.594285-24.034743 34.453211-31.041829 79.9744-30.687817 110.706103 0.16384 13.952731 3.718583 25.737509 11.220114 34.543909 7.53664 8.850286 17.554286 12.928731 27.15648 14.353554 12.931657 1.913417 26.723474-0.690469 38.063543-4.429531 4.596297 6.834469 9.856731 12.299703 15.743268 16.40448a48.341577 48.341577 0 0 0 28.367726 8.800548c12.141714-0.087771 23.288686-4.411977 32.042423-9.654857 8.0896 6.805211 16.334263 11.416137 24.745691 13.777189 11.989577 3.361646 23.12192 1.811017 32.636343-2.647772 12.843886-6.018194 22.28224-17.033509 28.534492-27.48416 16.372297 3.507931 30.055863 0.810423 40.81664-7.314285 12.168046-9.189669 17.504549-23.238949 20.327863-32.059978 2.486857-7.776549 2.141623-19.552549-0.324755-31.758628-2.606811-12.911177-7.993051-28.367726-17.580617-44.172434-19.362377-31.92832-55.383771-64.473966-118.12864-80.60928z" fill="#7C4000" p-id="4028"></path><path d="M702.823863 773.20192c10.19904-10.368731 18.625097-18.941074 46.720731-5.942126 14.283337 6.609189 26.764434 4.613851 38.821303 2.688732 12.053943-1.92512 23.683657-3.782949 36.273006 3.09248 10.102491 5.520823 14.116571 13.563611 18.294491 21.931154 5.18144 10.380434 10.614491 21.267017 28.230217 28.464274 32.592457 13.314926 42.446263 42.130286 37.548618 71.04512-4.897646 28.914834-68.564114 121.440549-174.676846 95.831772-106.112731-25.611703-124.708571-105.071177-114.097006-147.204389 8.21248-32.607086 25.35424-39.514697 46.773394-48.142628 6.255177-2.51904 12.876069-5.187291 19.745646-8.686446 7.027566-3.578149 11.869623-8.502126 16.366446-13.077943z m-502.901029 189.653577c-20.597029 9.710446-61.908114 18.467109-62.405485-24.1664-0.6144-53.291886 24.716434-154.299246 132.836205-126.414263 108.122697 27.884983 119.860663 110.922606 114.919132 126.414263-4.944457 15.491657-15.447771 37.179977-50.044343 24.1664-8.443611 20.655543-34.353737 52.302994-70.433646 13.633829-13.797669 12.1856-46.091703 26.5216-64.874788-13.633829z" fill="#FFFFFF" p-id="4029"></path><path d="M706.56 848.457143a19.017143 19.017143 0 1 0 0-38.034286 19.017143 19.017143 0 0 0 0 38.034286z m73.142857 8.777143a19.017143 19.017143 0 1 0 0-38.034286 19.017143 19.017143 0 0 0 0 38.034286z m98.011429 19.017143a19.017143 19.017143 0 1 1-38.034286 0 19.017143 19.017143 0 0 1 38.034286 0z m-134.462903 85.392822c39.432777 9.599269 76.209006-2.37568 82.142354-26.74688 5.933349-24.3712-21.223131-51.910949-60.652983-61.513142-39.432777-9.599269-76.209006 2.37568-82.142354 26.74688-5.933349 24.374126 21.223131 51.913874 60.652983 61.513142z" fill="#FF8F8E" p-id="4030"></path><path d="M192.213577 376.837851c-21.931154 0.766537-16.817006-235.262537 54.731337-234.651062 11.761371 0.886491 102.329783 79.85152 99.497692 102.42048-1.614994 12.873143-36.864 39.292343-75.24352 68.057965-28.888503 21.653211-59.552914 44.634697-78.985509 64.172617z m627.770514 4.561189c21.928229 0.766537 16.817006-235.265463-54.731337-234.651063-11.764297 0.886491-102.329783 79.85152-99.497691 102.417554 1.614994 12.876069 36.864 39.292343 75.24352 68.060892 28.888503 21.653211 59.552914 44.634697 78.985508 64.172617z" fill="#FFFFFF" p-id="4031"></path></svg>