<?xml version="1.0" standalone="no"?><!DOCTYPE svg PUBLIC "-//W3C//DTD SVG 1.1//EN" "http://www.w3.org/Graphics/SVG/1.1/DTD/svg11.dtd"><svg t="1738761611373" class="icon" viewBox="0 0 1024 1024" version="1.1" xmlns="http://www.w3.org/2000/svg" p-id="4346" xmlns:xlink="http://www.w3.org/1999/xlink" width="200" height="200"><path d="M255.473371 889.382034s156.765623-7.832137 260.953235-8.78592c115.755886-1.059109 300.160731 8.78592 300.160731 8.78592l191.321234 21.635657s-298.896823 17.712274-491.481965 17.577692C327.533714 928.463726 52.662857 911.017691 52.662857 911.017691l202.810514-21.635657z" fill="#000000" opacity=".5" p-id="4347"></path><path d="M281.801874 125.270309C342.785463 81.785417 421.25312 64.365714 520.777143 64.365714c153.523931 0 292.975177 82.382263 367.504823 266.830995 44.985783 64.459337 58.596206 151.4496 46.869943 234.534034-11.819886 83.748571-49.68448 165.814857-110.381349 219.311543-181.151451 159.659154-414.210926 107.326903-517.298469 57.341074-60.930926-29.543863-194.814537-103.447406-211.093211-256.155063-8.358766-78.41792 0.234057-160.29696 54.740114-253.855451 28.636891-96.130194 69.933349-163.787337 130.679955-207.102537z m16.983772 23.821165C244.893989 187.517806 206.262857 248.931474 178.66752 342.372937l-0.509074 1.717394-0.906972 1.544778c-51.659337 87.98208-59.628983 163.857554-51.779291 237.491931 14.453029 135.59808 133.792914 203.3664 194.7648 232.930743 98.397623 47.712549 316.945554 95.319771 485.188754-52.964206 54.362697-47.914423 89.684846-123.011657 100.755749-201.450057 11.076754-78.488137-2.431269-158.041234-42.773943-214.955154l-1.000594-1.410195-0.643658-1.606217C791.663177 168.7552 662.308571 93.622857 520.777143 93.622857c-96.50176 0-167.979886 16.95744-221.991497 55.471543z" fill="#5E3424" p-id="4348"></path><path d="M839.890651 729.924754c-10.140526 12.925806-21.272869 24.833463-33.356068 35.477212-169.688503 149.460114-389.0176 100.954697-486.87104 53.537645-35.313371-17.109577-93.30688-48.47616-137.537829-100.691382-6.243474 5.605669-12.797074 8.902949-19.502811 8.987794C123.377371 727.727543 12.264594 582.275657 24.868571 495.908571c12.603977-86.367086 87.616366-200.074971 127.859566-248.60672 21.31968-25.717029 57.943771-39.532251 88.82176-46.226285C301.8752 121.990583 390.278583 90.697143 520.651337 90.697143c102.294674 0 198.094263 38.958811 270.093166 124.70272 31.963429 6.81984 72.139337 21.638583 94.380617 49.748846 39.122651 49.43872 108.593737 171.165989 119.219931 257.799314 10.626194 86.633326-100.861074 223.17056-140.086125 221.783771-8.586971-0.304274-16.805303-5.87776-24.368275-14.80704z" fill="#FDC57E" p-id="4349"></path><path d="M303.47264 483.16416c32.858697 0 59.491474-13.016503 59.491474-29.069897 0-16.05632-26.632777-29.069897-59.491474-29.069897-32.855771 0-59.491474 13.013577-59.491474 29.069897 0 16.053394 26.635703 29.069897 59.491474 29.069897z m429.962971 0c-32.855771 0-59.491474-13.016503-59.491474-29.069897 0-16.05632 26.635703-29.069897 59.491474-29.069897s59.491474 13.013577 59.491475 29.069897c0 16.053394-26.635703 29.069897-59.491475 29.069897z" fill="#F79A99" p-id="4350"></path><path d="M635.991771 396.589349c-3.847314 21.723429 11.465874 42.5984 34.2016 46.621257 46.855314 3.554743 47.0016-5.269211 47.244435-20.146469 0.06144-3.636663 0.125806-7.633189 0.88064-11.901806 3.847314-21.723429-11.465874-42.595474-34.2016-46.621257-22.7328-4.022857-44.280686 10.324846-48.125075 32.048275z m-231.438628 0.257462c3.826834 21.621029-11.413211 42.3936-34.03776 46.398903-48.397166 3.434789-48.040229-4.795246-47.425829-18.897188 0.169691-3.920457 0.359863-8.2944-0.47104-12.998949-3.82976-21.618103 11.410286-42.3936 34.03776-46.398903 22.624549-4.005303 44.070034 10.275109 47.896869 31.896137zM585.142857 475.314469c0 24.810057-31.4368 60.407223-70.217143 60.407222s-70.217143-35.597166-70.217143-60.407222c0-24.807131 31.4368-44.918491 70.217143-44.918492s70.217143 20.11136 70.217143 44.918492z m91.539749 66.358125a11.702857 11.702857 0 0 0-22.165212-7.522011c-4.174994 12.299703-16.129463 21.723429-32.762148 26.790766-16.52736 5.035154-35.210971 4.903497-48.88576 0.345234-39.105097-13.034057-78.336-17.197349-127.253943 0.067291-21.044663 7.428389-36.735269 3.42016-47.987566-3.560594-11.79648-7.320137-19.186834-18.26816-21.87264-24.508709a11.702857 11.702857 0 0 0-21.498148 9.254035c3.107109 7.223589 9.35936 17.048137 18.797714 25.793097l0.029257 0.260388c2.402011 20.892526 17.747383 61.78816 41.466149 97.335589 23.461303 35.16416 57.572206 68.742583 98.912548 68.742583 52.042606 0 88.028891-35.091017 110.477897-72.566492 11.299109-18.865006 19.47648-38.783269 24.836389-56.226377 4.332983-14.099017 6.948571-26.983863 7.767771-36.641645 8.961463-6.9632 16.231863-16.059246 20.137692-27.563155z" fill="#000000" p-id="4351"></path><path d="M511.596251 593.92c-53.642971 0-81.051063 23.704137-93.219108 41.056549 10.24 21.530331 49.2544 74.693486 87.771428 77.118902 59.377371 3.736137 87.771429-39.497143 106.788572-77.118902-10.140526-15.550171-45.231543-41.056549-101.340892-41.056549z" fill="#FF8F8E" p-id="4352"></path><path d="M495.57504 457.005349c0.816274 2.481006-3.408457 6.10304-9.438354 8.086674-6.029897 1.983634-11.577051 1.579886-12.396252-0.90112-0.816274-2.483931 3.408457-6.10304 9.438355-8.0896 6.026971-1.983634 11.577051-1.579886 12.396251 0.904046z" fill="#FFFFFF" opacity=".6" p-id="4353"></path><path d="M521.865509 415.796663c-30.462537-0.453486-60.439406 4.344686-79.17568 13.437806a8.777143 8.777143 0 1 1-7.665372-15.79008c22.2208-10.787109 55.310629-15.673051 87.104366-15.199086 31.694263 0.473966 64.257463 6.30784 85.076846 18.768457a8.777143 8.777143 0 0 1-9.017052 15.061577c-16.890149-10.108343-45.764023-15.819337-76.323108-16.278674z" fill="#480D21" opacity=".2" p-id="4354"></path><path d="M374.491429 406.674286a8.777143 8.777143 0 1 0 0-17.554286 8.777143 8.777143 0 0 0 0 17.554286z m291.108571 0c-5.655406 0-10.24-3.929234-10.24-8.777143s4.584594-8.777143 10.24-8.777143 10.24 3.929234 10.24 8.777143-4.584594 8.777143-10.24 8.777143z" fill="#FFFFFF" p-id="4355"></path><path d="M259.42016 216.49408a14.628571 14.628571 0 0 0-0.991817-29.239589c-29.789623 1.009371-86.185691 6.158629-122.801006 50.316435-20.711131 24.976823-50.029714 66.37568-75.808183 112.511268-25.646811 45.89568-48.590263 97.87392-55.278445 143.714012-3.639589 24.935863 1.7408 52.800366 11.401508 79.652571 9.736777 27.065783 24.265874 54.324663 40.316343 78.572983 16.041691 24.230766 33.911954 45.924937 50.623634 61.717943 8.338286 7.881874 16.685349 14.58176 24.634515 19.382857 7.595154 4.58752 16.471771 8.45824 25.453714 8.344137 16.699977-0.207726 29.9008-11.799406 39.292343-23.765577 9.856731-12.560091 18.320823-29.052343 25.131885-46.030263a329.619749 329.619749 0 0 0 15.910035-52.086491c3.531337-16.407406 5.46816-32.250149 4.637257-44.099292-0.643657-9.201371-2.595109-23.353051-4.827429-39.541028l-0.930377-6.743772c-2.653623-19.324343-5.608594-41.577326-7.624411-63.830308-2.018743-22.320274-3.048594-44.19584-1.971932-62.794606 1.114697-19.227794 4.38272-32.4608 9.017052-39.46496a14.628571 14.628571 0 0 0-24.400457-16.141166c-9.17504 13.867886-12.659566 33.841737-13.824 53.912137-1.199543 20.696503-0.032183 44.210469 2.042148 67.124663 2.080183 22.984411 5.117074 45.81376 7.776549 65.176137l0.912823 6.629669v0.002926c2.282057 16.553691 4.07552 29.576046 4.646034 37.712457 0.544183 7.799954-0.743131 20.512183-4.05504 35.90144a300.397714 300.397714 0 0 1-14.464732 47.352686c-6.269806 15.632091-13.508023 29.321509-20.992 38.856411-7.949166 10.128823-13.724526 12.539611-16.644388 12.57472-0.833829 0.011703-4.01408-0.544183-9.959132-4.134034-5.588114-3.373349-12.258743-8.6016-19.6608-15.599909-14.774857-13.961509-31.255406-33.838811-46.32576-56.60672-15.061577-22.750354-28.402834-47.917349-37.185828-72.326583-8.856137-24.619886-12.639086-47.276617-9.976686-65.524297 5.909943-40.526994 26.784914-88.783726 51.864137-133.667108 24.94464-44.637623 53.259703-84.553143 72.791772-108.108069 27.77088-33.493577 72.034011-38.759863 101.270674-39.75168zM770.138697 230.546286a14.628571 14.628571 0 1 1 1.661806-29.207406c30.134857 1.711543 90.158811 10.87488 125.636023 55.711451 20.184503 25.506377 48.689737 68.420754 73.529051 115.931429 24.710583 47.26784 46.583223 100.571429 52.218149 146.525623 3.057371 24.912457-2.615589 52.300069-12.475246 78.5408-9.929874 26.427977-24.520411 52.800366-40.579657 76.132937-16.044617 23.312091-33.868069 44.05248-50.547566 59.058469-8.323657 7.489829-16.667794 13.829851-24.628663 18.326674-7.636114 4.315429-16.480549 7.835063-25.365943 7.522011-16.6912-0.590994-29.622857-12.481097-38.739382-24.65792-9.567086-12.782446-17.650834-29.464869-24.072778-46.592-6.465829-17.261714-11.50976-35.693714-14.716342-52.440503-3.15392-16.480549-4.727954-32.364251-3.627886-44.192914 0.854309-9.183817 3.130514-23.28576 5.7344-39.418148l1.082514-6.720366c3.09248-19.259977 6.556526-41.439817 9.078492-63.640137 2.530743-22.270537 4.060891-44.11392 3.408457-62.736092-0.67584-19.245349-3.639589-32.551497-8.113006-39.658057a14.631497 14.631497 0 0 1 24.766171-15.579428c8.853211 14.072686 11.881326 34.122606 12.586423 54.213485 0.725577 20.719909-0.980114 44.201691-3.578148 67.063223-2.603886 22.925897-6.161554 45.682103-9.262812 64.977189l-1.015223 6.313691-0.049737 0.295497c-2.659474 16.498103-4.75136 29.479497-5.506194 37.598355-0.725577 7.785326 0.275017 20.523886 3.232914 35.986285a300.570331 300.570331 0 0 0 13.376366 47.668663c5.912869 15.772526 12.835109 29.625783 20.099657 39.327452 7.715109 10.307291 13.43488 12.849737 16.351817 12.952137 0.9216 0.032183 4.093074-0.453486 9.938652-3.753692 5.517897-3.118811 12.115383-8.004754 19.450148-14.605165 14.640274-13.171566 30.995017-32.068754 46.015635-53.894583 15.008914-21.808274 28.367726-46.077074 37.29408-69.8368 8.993646-23.94112 13.080869-46.281874 10.825142-64.687543-4.991269-40.679131-24.906606-90.237806-49.108114-136.534309-24.075703-46.050743-51.606674-87.399863-70.541897-111.332205-27.11552-34.265966-75.524389-43.019703-104.357303-44.658103z" fill="#5E3424" p-id="4356"></path><path d="M251.12576 932.603611c-21.079771 10.011794-63.362194 19.043474-63.868343-24.92416-0.631954-54.956617 25.295726-159.120823 135.960869-130.363977 110.665143 28.756846 122.681051 114.389577 117.619565 130.363977-5.05856 15.977326-15.807634 38.344411-51.22048 24.92416-8.64256 21.302126-35.161234 53.935543-72.092525 14.058058-14.122423 12.568869-47.174217 27.352503-66.399086-14.058058z m496.88576-1.930971c20.594103 9.710446 61.905189 18.467109 62.399634-24.1664 0.617326-53.291886-24.713509-154.299246-132.83328-126.414263-108.122697 27.884983-119.860663 110.922606-114.919131 126.414263 4.944457 15.491657 15.447771 37.179977 50.044343 24.1664 8.443611 20.655543 34.353737 52.302994 70.433645 13.633829 13.797669 12.188526 46.091703 26.5216 64.874789-13.633829z" fill="#FDC57E" p-id="4357"></path><path d="M193.108846 909.490469c-0.321829-27.408091 6.190811-66.053851 25.424457-93.625783 9.417874-13.502171 21.66784-24.066926 37.557394-29.821806 15.910034-5.760731 36.746971-7.159223 64.093623-0.125806 55.565166 14.289189 85.117806 42.247314 100.401737 67.443566 7.738514 12.75904 11.942766 25.017783 13.917623 34.798446 0.988891 4.891794 1.395566 9.040457 1.442377 12.200228 0.049737 3.177326-0.269166 4.66944-0.304274 4.830355l-0.002926 0.014628c-2.586331 8.077897-5.699291 14.309669-10.093714 17.627429-3.13344 2.366903-9.824549 5.412571-25.597074-0.500297l-13.285669-4.985418-5.38624 13.130606c-4.008229 9.783589-11.495131 20.087954-19.8656 24.011337-3.662994 1.717394-7.59808 2.29376-12.317257 0.968412-5.0176-1.407269-11.998354-5.286766-20.667246-14.552503l-9.698743-10.359954-10.6496 9.376914c-6.047451 5.3248-15.389257 10.266331-23.885531 10.327771a19.090286 19.090286 0 0 1-11.430766-3.548891c-3.856091-2.688731-8.434834-7.671223-12.756114-16.884297l-6.220069-13.253486-13.247634 6.22592c-10.187337 4.789394-23.990857 8.484571-34.023131 6.998309-4.578743-0.67584-7.3728-2.270354-9.169189-4.376869-1.831497-2.153326-4.131109-6.61504-4.236434-15.918811z m134.363428-151.908938c-31.80544-8.177371-58.801006-7.20896-81.340708 0.950858-22.557257 8.168594-39.380114 23.08096-51.594972 40.594285-24.031817 34.453211-31.041829 79.9744-30.684891 110.706103 0.16384 13.952731 3.718583 25.737509 11.220114 34.543909 7.53664 8.850286 17.554286 12.928731 27.15648 14.350628 12.931657 1.916343 26.723474-0.687543 38.060617-4.426605 4.599223 6.831543 9.859657 12.299703 15.746195 16.40448a48.341577 48.341577 0 0 0 28.367725 8.800548c12.141714-0.087771 23.288686-4.411977 32.042423-9.654857 8.086674 6.805211 16.334263 11.416137 24.745692 13.777189 11.989577 3.361646 23.12192 1.811017 32.636342-2.647772 12.843886-6.018194 22.28224-17.033509 28.534492-27.48416 16.372297 3.505006 30.055863 0.810423 40.813714-7.314286 12.170971-9.192594 17.507474-23.238949 20.327863-32.062902 2.489783-7.773623 2.144549-19.549623-0.321829-31.755703-2.606811-12.911177-7.995977-28.370651-17.580617-44.172435-19.362377-31.92832-55.386697-64.473966-118.12864-80.60928z m480.033646 151.908938c0.318903-27.408091-6.193737-66.053851-25.424457-93.625783-9.417874-13.502171-21.670766-24.066926-37.56032-29.821806-15.910034-5.760731-36.744046-7.159223-64.093623-0.125806-55.56224 14.289189-85.117806 42.247314-100.398811 67.443566-7.738514 12.75904-11.942766 25.017783-13.920549 34.798446-0.988891 4.891794-1.39264 9.040457-1.442377 12.200228-0.049737 3.177326 0.272091 4.672366 0.3072 4.830355v0.014628c2.586331 8.077897 5.702217 14.309669 10.093714 17.627429 3.13344 2.366903 9.827474 5.412571 25.597074-0.500297l13.288595-4.985418 5.383314 13.130606c4.011154 9.783589 11.495131 20.087954 19.8656 24.011337 3.662994 1.717394 7.59808 2.29376 12.317257 0.968412 5.020526-1.407269 11.998354-5.286766 20.670172-14.552503l9.698742-10.359954 10.6496 9.376914c6.044526 5.3248 15.386331 10.266331 23.885532 10.327771a19.096137 19.096137 0 0 0 11.430766-3.548891c3.856091-2.688731 8.434834-7.671223 12.756114-16.884297l6.217143-13.253486 13.25056 6.22592c10.187337 4.789394 23.990857 8.484571 34.020205 6.998309 4.581669-0.67584 7.375726-2.270354 9.172115-4.376869 1.831497-2.153326 4.128183-6.61504 4.236434-15.918811z m-134.363429-151.908938c31.80544-8.177371 58.79808-7.20896 81.340709 0.950858 22.557257 8.168594 39.377189 23.08096 51.592046 40.594285 24.034743 34.453211 31.044754 79.9744 30.684891 110.706103-0.160914 13.952731-3.718583 25.737509-11.217188 34.543909-7.53664 8.850286-17.554286 12.928731-27.15648 14.350628-12.934583 1.916343-26.723474-0.687543-38.060618-4.426605-4.599223 6.831543-9.859657 12.299703-15.746194 16.40448a48.35328 48.35328 0 0 1-28.367726 8.800548c-12.141714-0.087771-23.288686-4.411977-32.042422-9.654857-8.0896 6.805211-16.334263 11.416137-24.748618 13.777189-11.986651 3.361646-23.118994 1.811017-32.633417-2.647772-12.843886-6.018194-22.285166-17.033509-28.534491-27.48416-16.375223 3.505006-30.055863 0.810423-40.81664-7.314286-12.168046-9.192594-17.504549-23.238949-20.327863-32.062902-2.486857-7.773623-2.141623-19.549623 0.321829-31.755703 2.609737-12.911177 7.995977-28.370651 17.580617-44.172435 19.365303-31.92832 55.386697-64.473966 118.131565-80.60928z" fill="#5E3424" p-id="4358"></path></svg>