<?xml version="1.0" standalone="no"?><!DOCTYPE svg PUBLIC "-//W3C//DTD SVG 1.1//EN" "http://www.w3.org/Graphics/SVG/1.1/DTD/svg11.dtd"><svg t="1738761594486" class="icon" viewBox="0 0 1024 1024" version="1.1" xmlns="http://www.w3.org/2000/svg" p-id="4181" xmlns:xlink="http://www.w3.org/1999/xlink" width="200" height="200"><path d="M237.919086 918.764983s156.768549-7.835063 260.953234-8.788846c115.758811-1.059109 300.163657 8.788846 300.163657 8.788846l191.318309 21.632731s-298.896823 17.712274-491.481966 17.577692C309.979429 957.843749 35.108571 940.397714 35.108571 940.397714l202.810515-21.632731z" fill="#000000" opacity=".5" p-id="4182"></path><path d="M145.211977 78.283337c4.765989-6.606263 13.320777-15.108389 25.78432-13.788891 10.491611 1.111771 27.390537 6.038674 46.650514 12.603977 19.766126 6.73792 43.476114 15.72864 68.312503 25.755063 44.377234 17.911223 92.865097 39.330377 129.536 57.481508A550.89152 550.89152 0 0 1 510.537143 152.137143c35.579611 0 70.231771 3.370423 103.529326 9.754331 35.98336-17.846857 82.701166-38.636983 125.554102-56.09472 24.608183-10.026423 48.101669-19.017143 67.689326-25.760914 19.078583-6.562377 35.845851-11.498057 46.273097-12.612754 12.501577-1.337051 21.024183 7.267474 25.719955 13.838628 5.12 7.159223 9.371063 16.828709 13.039908 27.4432 7.422537 21.480594 13.80352 50.936686 19.213166 82.970332 10.415543 61.703314 17.627429 135.560046 21.272868 187.137463C961.281463 429.869349 977.188571 486.914926 977.188571 547.108571c0 218.135406-208.928183 394.971429-466.651428 394.971429C252.810971 942.08 43.885714 765.243977 43.885714 547.108571c0-62.352823 17.071543-121.332297 47.47264-173.7728 3.733211-51.44576 10.948023-123.904 21.290423-184.609645 5.459383-32.036571 11.901806-61.498514 19.397486-82.98496 3.703954-10.620343 7.998903-20.29568 13.165714-27.457829zM904.148114 387.920457a14.578834 14.578834 0 0 0 5.441829 9.742629C934.288823 443.608503 947.931429 494.30528 947.931429 547.108571c0 197.593966-191.063771 365.714286-437.394286 365.714286S73.142857 744.702537 73.142857 547.108571c0-53.394286 13.949806-104.635246 39.175314-150.987337a14.616869 14.616869 0 0 0 7.601006-11.860845l0.108252-1.582812C177.210514 287.992686 282.331429 215.7568 411.051154 190.83264c1.205394 0.611474 2.39616 1.217097 3.569372 1.819794a14.628571 14.628571 0 0 0 19.365303-5.719771A527.269303 527.269303 0 0 1 510.537143 181.394286c27.899611 0 55.088274 2.156251 81.372891 6.26688a14.628571 14.628571 0 0 0 20.444892 7.890651c1.933897-1.000594 3.914606-2.018743 5.942125-3.045668 127.291977 26.863909 230.616503 100.211566 285.851063 195.411382z m-4.815725-59.318857c-3.970194-42.387749-9.561234-90.19392-16.626835-132.05504-5.336503-31.612343-11.401509-59.143314-18.013623-78.280411-3.349943-9.692891-6.509714-16.237714-9.189668-19.98848a20.772571 20.772571 0 0 0-1.114697-1.439452c-7.285029 1.211246-20.155246 4.880091-37.557395 10.866103-18.908891 6.506789-41.869897 15.289783-66.17088 25.1904a2126.204343 2126.204343 0 0 0-91.326171 39.748754c99.017874 28.174629 183.1936 83.695909 239.999269 155.958126zM275.008366 129.983634c31.319771 12.639086 64.588069 27.004343 94.076343 40.626469C268.659566 197.61152 182.96832 252.606171 124.799269 324.754286c3.999451-42.153691 9.613897-89.564891 16.6912-131.118812 5.38624-31.606491 11.506834-59.131611 18.180388-78.262857 3.376274-9.684114 6.565303-16.226011 9.268663-19.973851 0.476891-0.661211 0.871863-1.149806 1.18784-1.509669 7.358171 1.193691 20.41856 4.877166 38.078171 10.898286 19.093211 6.509714 42.27072 15.289783 66.802835 25.1904zM171.051886 93.008457c0 0.008777-0.058514 0.058514-0.181395 0.128732 0.119954-0.1024 0.181394-0.134583 0.181395-0.128732z m682.370194 2.884754c0 0.008777 0.064366 0.064366 0.187246 0.137509-0.12288-0.108251-0.187246-0.146286-0.187246-0.137509z" fill="#634011" p-id="4183"></path><path d="M172.617143 89.234286c32.197486 0 161.698377 54.576274 237.8752 92.961645C442.643017 175.929051 476.133669 172.617143 510.537143 172.617143c38.639909 0 76.12416 4.17792 111.855908 12.024686 74.409691-36.787931 196.897646-86.250057 227.526949-89.556115 31.875657-3.434789 59.789897 183.916251 58.751269 287.229075C937.559771 432.043154 953.782857 487.974034 953.782857 547.108571c0 206.824594-198.448274 374.491429-443.245714 374.491429S67.291429 753.933166 67.291429 547.108571c0-60.123429 16.770194-116.937874 46.57152-167.286491C113.137371 273.647909 144.474697 89.234286 172.617143 89.234286z" fill="#F8CB8F" p-id="4184"></path><path d="M311.588571 593.92c34.739931 0 62.902857-13.753783 62.902858-30.72s-28.162926-30.72-62.902858-30.72S248.685714 546.233783 248.685714 563.2s28.162926 30.72 62.902857 30.72z m450.56 0c34.739931 0 62.902857-13.753783 62.902858-30.72s-28.162926-30.72-62.902858-30.72-62.902857 13.753783-62.902857 30.72 28.162926 30.72 62.902857 30.72z" fill="#F79A99" p-id="4185"></path><path d="M845.739154 105.325714c-50.395429 29.734034-153.646811 95.890286-163.503543 122.648869-8.034011 21.817051 74.4448 69.245806 137.447132 105.474926 33.593051 19.318491 61.650651 35.45088 67.490377 42.817828 16.799451 21.185097-10.07616-257.562331-41.433966-270.941623zM178.260846 108.251429c50.395429 28.7744 153.646811 92.79488 163.503543 118.693302 8.034011 21.111954-74.4448 67.01056-137.447132 102.07232-33.593051 18.695314-61.650651 34.306926-67.490377 41.436892-16.799451 20.50048 10.07616-249.253303 41.433966-262.202514z" fill="#FFFFFF" opacity=".6" p-id="4186"></path><path d="M351.363657 607.050606c-97.715931 39.078766-211.997257-6.977829-272.369371-34.889143C78.994286 678.227383 210.967406 909.897143 490.355566 909.897143 834.328869 909.897143 935.880411 693.113417 950.857143 572.161463c-32.291109 30.702446-150.223726 75.784777-248.501394 34.889143C581.614446 556.81024 588.633234 424.228571 528.264046 424.228571c-60.372114 0-54.754743 133.977234-176.900389 182.822035z" fill="#FFFFFF" p-id="4187"></path><path d="M421.302857 509.074286c0 27.469531-21.612251 49.737143-48.274286 49.737143s-48.274286-22.267611-48.274285-49.737143 21.612251-49.737143 48.274285-49.737143 48.274286 22.267611 48.274286 49.737143z m330.605714 0c0 27.469531-22.267611 49.737143-49.737142 49.737143s-49.737143-22.267611-49.737143-49.737143 22.267611-49.737143 49.737143-49.737143 49.737143 22.267611 49.737142 49.737143z m-213.4016 58.461623c18.393966-0.263314 32.007314-1.805166 32.007315-10.696412 0-10.503314-18.993737-27.285211-42.422857-27.285211s-42.422857 16.781897-42.422858 27.285211c0 8.894171 13.616274 10.433097 32.013166 10.696412 0.617326 10.061531-0.196023 23.867977-7.20896 33.104457-3.487451 4.593371-8.803474 8.452389-17.486994 10.052754-8.935131 1.647177-21.746834 0.939154-39.883337-4.549486a8.777143 8.777143 0 1 0-5.084892 16.799452c19.719314 5.971383 35.521097 7.340617 48.14848 5.014674 12.884846-2.37568 22.092069-8.543086 28.285806-16.699977 1.421897-1.872457 2.668251-3.826834 3.756617-5.833874 1.149806 2.050926 2.466377 4.049189 3.97312 5.95968 13.320777 16.896 38.069394 23.467154 78.821669 11.585828a8.774217 8.774217 0 1 0-4.912275-16.852114c-37.870446 11.03872-53.338697 3.004709-60.126354-5.602743-7.261623-9.210149-8.095451-22.952229-7.457646-32.978651z" fill="#634011" p-id="4188"></path><path d="M389.12 506.148571a11.702857 11.702857 0 1 0 0-23.405714 11.702857 11.702857 0 0 0 0 23.405714z m298.422857 0a11.702857 11.702857 0 1 0 0-23.405714 11.702857 11.702857 0 0 0 0 23.405714z" fill="#FFFFFF" p-id="4189"></path><path d="M377.417143 892.860709c0 11.0592-2.884754 18.733349-7.176777 24.640365-4.514377 6.217143-11.881326 12.220709-23.309166 17.451886C323.341166 945.757623 287.840549 950.857143 244.297143 950.857143s-79.044023-5.09952-102.634057-15.904183c-11.42784-5.231177-18.794789-11.234743-23.309166-17.451886-4.292023-5.907017-7.176777-13.581166-7.176777-24.640365 0-22.870309 12.744411-49.122743 37.443291-70.489235C172.985783 801.294629 206.871406 787.017143 244.297143 787.017143c37.425737 0 71.31136 14.277486 95.676708 35.354331C364.672731 843.737966 377.417143 869.9904 377.417143 892.860709z m29.257143 0C406.674286 959.704503 333.976137 980.114286 244.297143 980.114286S81.92 959.704503 81.92 892.860709C81.92 826.01984 154.618149 757.76 244.297143 757.76s162.377143 68.25984 162.377143 135.100709z m500.297143 0c0 11.0592-2.884754 18.733349-7.176778 24.640365-4.514377 6.217143-11.881326 12.220709-23.309165 17.451886-23.590034 10.804663-59.090651 15.904183-102.634057 15.904183s-79.044023-5.09952-102.634058-15.904183c-11.42784-5.231177-18.794789-11.234743-23.309165-17.451886-4.292023-5.907017-7.176777-13.581166-7.176777-24.640365 0-22.870309 12.744411-49.122743 37.443291-70.489235C702.540069 801.294629 736.425691 787.017143 773.851429 787.017143c37.425737 0 71.31136 14.277486 95.676708 35.354331C894.227017 843.737966 906.971429 869.9904 906.971429 892.860709z m29.257142 0C936.228571 959.704503 863.530423 980.114286 773.851429 980.114286s-162.377143-20.409783-162.377143-87.253577C611.474286 826.01984 684.172434 757.76 773.851429 757.76s162.377143 68.25984 162.377142 135.100709z" fill="#634011" p-id="4190"></path><path d="M244.297143 962.56c75.135269 0 136.045714-17.188571 136.045714-73.476389S319.432411 775.314286 244.297143 775.314286 108.251429 832.795794 108.251429 889.083611C108.251429 945.371429 169.161874 962.56 244.297143 962.56z m529.554286-2.925714c73.520274 0 133.12-16.65024 133.12-71.179703S847.371703 778.24 773.851429 778.24 640.731429 833.92512 640.731429 888.454583C640.731429 942.984046 700.331154 959.634286 773.851429 959.634286z" fill="#FFFFFF" p-id="4191"></path><path d="M290.927177 882.568046a8.777143 8.777143 0 1 0-17.124206-3.853166c-2.363977 10.497463-4.251063 27.11552-2.23232 43.379566 1.980709 15.989029 8.04864 33.83296 23.727543 43.54048a8.777143 8.777143 0 0 0 9.242332-14.926995c-8.897097-5.506194-13.800594-16.676571-15.550172-30.772662-1.714469-13.824-0.087771-28.361874 1.936823-37.367223z m-98.075794 11.969097a8.777143 8.777143 0 0 0-16.9984-4.388572c-2.153326 8.349989-4.049189 21.714651-2.878903 35.383589 1.158583 13.49632 5.459383 28.882651 17.302674 39.245531a8.777143 8.777143 0 0 0 11.556572-13.212525c-6.88128-6.02112-10.377509-15.991954-11.369326-27.533897-0.974263-11.369326 0.643657-22.726949 2.387383-29.494126z m541.71648-9.043383a8.780069 8.780069 0 0 1 17.127131-3.853166c2.363977 10.497463 4.248137 27.11552 2.23232 43.379566-1.983634 15.989029-8.04864 33.83296-23.730468 43.54048a8.777143 8.777143 0 0 1-9.239406-14.926994c8.897097-5.506194 13.800594-16.676571 15.550171-30.772663 1.711543-13.824 0.087771-28.361874-1.939748-37.367223z m98.075794 11.969097a8.777143 8.777143 0 0 1 16.9984-4.388571c2.156251 8.349989 4.052114 21.714651 2.878903 35.383588-1.155657 13.49632-5.459383 28.882651-17.299749 39.245532a8.777143 8.777143 0 0 1-11.559497-13.212526c6.88128-6.02112 10.380434-15.991954 11.369326-27.533897 0.974263-11.369326-0.640731-22.726949-2.387383-29.494126z" fill="#634011" p-id="4192"></path><path d="M561.737143 174.08c10.155154 31.378286 20.48 86.127177 0 95.085714-23.405714 10.24-52.662857-95.085714-45.348572-96.548571 3.493303-0.699246 13.902994-0.078994 24.578926 0.555886 7.583451 0.447634 15.301486 0.906971 20.769646 0.906971z m-84.845714 0c10.155154 31.378286 23.022446 103.005623 2.715062 124.219977C454.222994 324.815726 427.154286 179.931429 434.468571 178.468571c5.974309-1.193691 29.257143-4.388571 42.422858-4.388571zM194.56 421.302857c5.052709-20.21376-64.365714-0.49152-108.251429 19.014217l-14.628571 55.588572C131.168549 471.525669 190.171429 438.857143 194.56 421.302857z m744.854674 24.581852c-43.885714-19.502811-93.084526-36.018469-88.031817-15.804709 4.388571 17.554286 41.448594 45.837166 100.937143 70.217143l-12.905326-54.412434zM155.062857 510.534217c5.052709-20.21376-42.422857-4.87424-86.308571 14.631497v40.96c59.488549-24.379977 81.92-38.037211 86.308571-55.591497zM955.245714 529.554286c-43.885714-19.505737-84.046994-33.379474-78.994285-13.165715 4.388571 17.554286 19.505737 31.205669 78.994285 55.588572V529.554286z" fill="#F6BB6C" p-id="4193"></path><path d="M666.343131 608.639269c22.683063-5.760731 57.81504-14.277486 89.488823-21.111955 15.833966-3.414309 30.834103-6.416091 42.996297-8.440685 6.079634-1.012297 11.480503-1.787611 15.936366-2.244023 4.397349-0.453486 8.074971-0.620251 10.611566-0.336457a2.925714 2.925714 0 1 1-0.649509 5.813394c-1.866606-0.207726-5.011749-0.105326-9.362285 0.342308-4.289097 0.441783-9.558309 1.193691-15.573578 2.197212-12.030537 2.001189-26.928274 4.982491-42.724205 8.388023-31.586011 6.813989-66.644846 15.313189-89.284023 21.062217a2.925714 2.925714 0 0 1-1.439452-5.670034z m-308.753554 14.611017c-25.202103-5.757806-64.228206-14.27456-99.412846-21.106103-17.589394-3.414309-34.245486-6.413166-47.747657-8.43776-6.746697-1.009371-12.735634-1.78176-17.671314-2.238172-4.877166-0.453486-8.9088-0.6144-11.656046-0.336457a2.925714 2.925714 0 1 0 0.585143 5.822172c2.144549-0.216503 5.696366-0.108251 10.532572 0.339383 4.783543 0.444709 10.6496 1.196617 17.343634 2.200137 13.379291 2.004114 29.944686 4.988343 47.498971 8.393874 35.10272 6.816914 74.064457 15.31904 99.222675 21.068069a2.925714 2.925714 0 0 0 1.304868-5.705143z m-77.43488 31.556754c-35.18464 6.831543-74.210743 15.348297-99.412846 21.106103a2.925714 2.925714 0 0 0 1.304869 5.705143c25.161143-5.749029 64.119954-14.251154 99.222674-21.068069 17.554286-3.405531 34.11968-6.38976 47.498972-8.393874 6.691109-1.00352 12.560091-1.755429 17.343634-2.200137 4.836206-0.447634 8.388023-0.555886 10.532571-0.339383a2.925714 2.925714 0 0 0 0.585143-5.822172c-2.747246-0.277943-6.77888-0.117029-11.658971 0.336458-4.932754 0.456411-10.921691 1.2288-17.668389 2.238171-13.502171 2.024594-30.158263 5.023451-47.747657 8.43776z m545.616457 9.4208c-22.683063-5.760731-57.81504-14.277486-89.488823-21.111954-15.833966-3.414309-30.834103-6.416091-42.996297-8.440686-6.079634-1.012297-11.480503-1.787611-15.936365-2.244023-4.397349-0.453486-8.074971-0.620251-10.611566-0.336457a2.925714 2.925714 0 1 0 0.649508 5.813394c1.869531-0.207726 5.011749-0.105326 9.362286 0.342309 4.289097 0.441783 9.558309 1.193691 15.573577 2.197211 12.030537 2.001189 26.928274 4.982491 42.724206 8.388023 31.586011 6.813989 66.644846 15.313189 89.284023 21.062217a2.925714 2.925714 0 0 0 1.439451-5.670034z" fill="#412705" p-id="4194"></path></svg>