<?xml version="1.0" encoding="UTF-8"?>
<svg id="_图层_1" data-name="图层 1" xmlns="http://www.w3.org/2000/svg" version="1.1" viewBox="0 0 1000 1000">
  <defs>
    <style>
      .cls-1 {
        fill-rule: evenodd;
      }

      .cls-1, .cls-2 {
        stroke-width: 0px;
      }

      .cls-1, .cls-2, .cls-3 {
        fill: #650760;
      }

      .cls-3 {
        stroke: #fff;
        stroke-width: .5px;
      }
    </style>
  </defs>
  <path class="cls-3" d="M500,500"/>
  <path class="cls-3" d="M500,500"/>
  <path class="cls-3" d="M500,500"/>
  <path class="cls-3" d="M500,500"/>
  <path class="cls-3" d="M500,500"/>
  <path class="cls-3" d="M500,500"/>
  <path class="cls-3" d="M500,500"/>
  <path class="cls-3" d="M500,500"/>
  <path class="cls-3" d="M500,500"/>
  <path class="cls-3" d="M500,500"/>
  <path class="cls-3" d="M500,500"/>
  <path class="cls-3" d="M500,500"/>
  <path class="cls-3" d="M500,500"/>
  <path class="cls-3" d="M500,500"/>
  <path class="cls-3" d="M500,500"/>
  <path class="cls-3" d="M500,500"/>
  <path class="cls-3" d="M500,500"/>
  <path class="cls-3" d="M500,500"/>
  <path class="cls-3" d="M500,500"/>
  <path class="cls-3" d="M500,500"/>
  <path class="cls-3" d="M500,500"/>
  <path class="cls-3" d="M500,500"/>
  <path class="cls-3" d="M500,500"/>
  <path class="cls-3" d="M500,500"/>
  <path class="cls-3" d="M500,500"/>
  <path class="cls-3" d="M500,500"/>
  <path class="cls-3" d="M500,500"/>
  <path class="cls-3" d="M500,500"/>
  <path class="cls-3" d="M500,500"/>
  <path class="cls-3" d="M500,500"/>
  <path class="cls-3" d="M500,500"/>
  <g>
    <path class="cls-1" d="M200.26,123.92c38.08,22.2,88.2,37.84,148.23,38.38,61.53.71,113.72-11.31,151.4-35.17,37.96,23.74,90.74,36.12,151.68,35.17,58.91-.78,110.8-16.18,148.29-38.09.71,88.42-1.37,172.75-1.37,260.76s4.71,178.16-17.67,245c-10.89,32.79-27.31,60.28-45.82,86.04-18.21,25.52-40.82,47.9-65.1,66.35-25.24,19.22-54.4,32.85-84.03,47.78-25.41,12.8-50.94,26.01-75.69,39.46-3.45,1.9-7.51,3.15-10,6.48-13.34-8.98-27.85-16.19-42.25-23.74-14.51-7.43-29.16-15.05-43.68-22.5-14.99-7.67-29.99-14.22-44.21-21.78-14.22-7.5-27.14-16.24-39.81-26.06-49.81-38.03-88.24-87.3-111.04-152.88-11.66-33.85-14.99-72.59-17.02-114.55-1.91-41.36-.89-85.39-.89-128.29,0-87.41-1.24-173.35-1.24-261.41-.07-.47-.07-.95.23-.95ZM484.82,155.34c-52.36,23.09-134.84,29.82-201.72,16.31-20.95-4.23-39.99-9.89-56.53-17.55-2.2-1.07-4.65-2.86-7.39-2.62-.77,81.35,1.31,165.73,1.31,244.1,0,40.77-1.96,82.42-.36,121.22,1.79,38.62,6.14,75.28,16.72,106.81,10.42,30.94,24.35,57.54,41.72,81.77,25.95,36.29,57.36,66.41,97.11,87.95,13.4,7.14,27.49,13.51,41.77,20.11,27.85,13.04,55.7,26.66,83.37,40.17,27.59-13.75,55.63-26.78,83.13-40.17,14.16-6.84,28.38-12.67,41.65-19.87,26.42-14.04,48.92-32.9,68.91-54.09,29.87-31.48,54.27-70.63,69.04-116.16,20.7-63.97,16.41-144.96,16.41-226.84s.24-163.7.84-244.98c-2.5,0-4.94,1.55-7.32,2.62-17.2,7.56-35.76,13.86-56.42,17.91-48.62,9.46-108.24,8.03-154-1.96-23.57-5.12-44.45-13.03-62.9-22.43-3.81,3.03-9.45,5.11-15.36,7.73Z"/>
    <path class="cls-1" d="M506.66,180.99c25.76,2.8,45.11,16.25,56.77,35.35,1.55,2.5,4.11,6.54,3.87,8.51-.36,2.08-1.91,3.75-3.87,3.63-2.56-.12-3.27-3.63-5.18-6.78-9.81-17.2-25.7-29.04-48.43-33.03,1.07,5.24,3.45,10.3,5.48,15.72,1.9,5.35,3.93,10.88,5.77,16.12.9.95-.12,2.2,0,3.51,4.1-.3,8.69-.12,8.03,4.46-.89,5.9-18.5,1.43-25.05,2.92-.72,4.52-.12,10.53-.31,15.59,3.58,2.14,20.59-1.79,24.04.71,1.01.65,1.43,2.74,1.31,3.81-.95,6.43-18.21,1.19-25.05,2.85-1.01,5.36,1.47,12.86-3.87,13.21-5.12.29-3.69-6.79-3.81-12.91-6.44-2.32-24.04,3.39-25.36-2.8-1.78-8.81,18.88-2.44,24.99-4.88.61-4.35.61-10.95,0-15.35-5.71-2.15-23.8,2.98-24.99-2.86-.94-4.53,3.58-5.23,7.74-4.76.9-.83-.47-1.9,0-3.21,4.16-10.36,7.56-21.48,11.91-31.78-27.5,3.75-44.87,20.41-53.56,43.85,2.98-.12,7.5-1.85,13.44-2.86,6.31-1.07,19.12-3.99,15.37,4.83-5.18,1.66-11.07,1.48-16.43,2.62-5.24,1.01-10,2.85-14.4,4.46-.83,1.61-1.07,3.87-1.31,6.13,4.64-.71,9.52-2.73,15.71-3.86,4.45-.77,17.74-3.98,16.43,3.21-.6,3.16-4.4,2.75-7.38,2.92-8.57.54-19.34,3.33-24.76,6.37-.24,1.13,0,3.69.35,5.12,5.24-1.37,9.05-2.5,15.72-3.57,4.16-.53,14.16-3.33,15.11,1.31,1.37,6.67-10.35,4.76-16,5.77-6.14,1.14-9.82,2.86-13.51,4.1,1.37,3.16,1.42,7.2-1.67,7.74-6.42,1.43-7.14-13.68-7.38-19.81-.24-9.4,1.07-17.73,2.98-24.1,8.46-29.04,31.06-47.61,64.14-52.54,2.39-3.51,2.39-10.53,7.03-10.06,4.11.42,3.69,7.27,6.12,10.36ZM504.46,196.04c-1.07-2.73-2.14-8.81-5.23-8.27-5.41,11.19-9.05,24.16-13.81,36.24,2.74.12,7.92-.12,10.59,0-2.02-10.77,10.24-11.42,7.74,0h10.95c-3.1-8.27-7.01-18.98-10.23-27.97Z"/>
    <path class="cls-1" d="M348.85,208.84c1.6,1.25-.54,3.2.29,4.46,4.65-.89,10.42,2.68,10.9,5.18.66,3.21-2.92,6.66-1.96,10.88,7.86,5.01,9.76,15.96,18.69,19.99,3.86,7.32,6.42,18.39,4.76,28.51-1.31,7.68-8.93,8.51-7.38,18.57.72,4.33,3.33,13.09,6.42,14.46,2.03.9,4.77-.18,6.79,1.25,1.61,1.97.83,6.25-.36,8.1-6.19,1.13-8.45,7.67-16.06,5.11-2.86-1.07-7.86-4.35-9.28-6.78-.96-1.55-.84-3.75-1.61-5.42-1.6-3.63-4.47-5.83-6.13-8.39-4.64,1.43-18.92-1.01-16.66,6.49,1.07,3.34,12.37,1.67,8.69,10.23-1.31,2.98-11.07,7.14-14.76,7.98-1.31.23-3.69.41-4.52.29-1.19-.11-2.26-1.25-3.81-1.61-3.1-.59-7.26.78-10.59,0-2.03-.35-7.62-4.34-9.65-6.07-1.31-1.19-3.92-4.4-4.4-5.77-1.49-3.51-.53-6.42-4.29-8.02-1.66-.72-3.8-.42-5.7-.95-3.45-.83-7.15-3.64-9.94-1.54-3.51,3.86,2.02,5.53,3.8,8.93,1.72,3.21.66,5.59,1.02,10.23-1.14,1.54-3.58,4.34-6.43,4.81-3.87.72-9.11-2.2-14.52-3.51-3.51-.9-8.8-.9-9.52-4.46-.48-2.27,1.77-3.57,2.19-5.48.66-2.55-.77-4.58.96-6.66-2.44-3.75-1.38-9.59-1.62-16.36-.23-7.38-.11-12.37,1.62-17.67.65-1.9.77-4.11,1.37-5.18.95-2.26,7.56-7.55,10.23-8.93,6.06-3.39,16.18-6.07,26.9-4.52,2.26.24,4.28,2.14,6.42,2.56,4.06.72,9.52-.42,13.82,0,1.31-.77,2.38-1.6,3.21-2.85.36-6.96-3.57-9.7-5.47-14.46.89-7.03-1.19-15,1.31-21.72.66-1.9,3.81-7.26,5.48-9.1,1.6-1.84,5-4.47,7.02-4.82,3.68-.65,9.88,1.43,13.45,2.62,2.02-1.43,6.54-1.43,9.34-.36ZM329.87,223.36c3.2.78,4.41-3.1,5.83-5.18-.83-1.54-.36-4.46-2.63-4.52.3,4.58-1.89,6.66-3.2,9.7ZM318.09,221.99c.36.47,1.3.41,2.27.41.83-1.9,1.13-4.45,2.13-6.07-2.8-.89-4.64,3.39-4.4,5.65ZM338.25,223.06c-2.91,2.26-8.51,4.52-6.72,9.28.24.06.6,0,.6.24,3.69-1.07,4.71-5,7.39-7.32,2.26-1.91,6.42-3.16,6.06-7.5-3.69-1.37-4.99,3.33-7.33,5.3ZM338.25,238.05c.07.13.66.66.66.83,1.19.77,2.02-.71,3.45-.83,2.62-.23,4.52,1.25,6.12,1.25,1.55-1.48.18-4.22-1.6-4.46-2.14,3.44-9.69-2.8-8.63,3.21ZM358.73,234.84c-1.66-.18-2.31,1.66-2.2,2.86.24,2.2,4.17,4.64,6.43,4.52-.72-1.37-2.61-7.14-4.23-7.38ZM330.83,239.66c-2.62,1.02-4.11,3.4-4.76,6.32,2.15.89,2.55-2.15,4.4-2.44,2.21,1.18,2.15,4.58,4.53,5.41.59.95,3.44-.36,3.57.95,0,1.73-2.74,1.73-4.52,2.62-1.91.95-5.42,3.74-8.34,5.54-5.11,2.91-11.78,6.72-4.16,10.11.83-.66-.05-2.27.36-3.04.59-1.54,6.9-6.01,7.62-6.13,1.31-.24,2.79.72,3.92.54,3.33-.42,4.1-3.63,7.02-4.88,1.84.42,3.7.77,6.2.72,2.9,1.01,1.37,6.55,4.74,7.13,1.55-2.13.36-5.12,2.27-7.13-.3-2.08-2.2-2.63-1.97-5.06.54-1.25,1.97-1.55,3.22-2.02,3.03,2.2,2.44,8.03,5.42,10.23,2.61-1.6,3.27-7.43,1.66-10.23-1.43-2.32-5.82-3.21-6.79-4.99-7.49.06-13.21,1.9-18.92,3.69-2.26-1.9-3.22-5.24-5.47-7.32ZM367.71,260.25c2.39-1.37,1.07-6.36-1.54-6.49-1.14,1.84-1.14,6.43,1.54,6.49ZM337.54,263.05c.71,1.72,3.4,1.37,3.87,3.21-.95,3.57,2.03,5.36,2.63,8.4-1.91,2.73-4.89.23-5.78-1.61-1.42.24-2.31.95-2.31,2.56,7.37.47,3.33,9.05-1.25,10.53-1.38.6-3.28,0-4.82.36-1.78.47-3.46,2.49-5.42,3.21-3.04,1.07-5.83.18-7.67,1.66-.95,3.75-.48,8.39,2.27,8.34,2.73-.12,2.61-5.54,5.41-6.43,3.99.65,3.58-2.5,5.77-3.21,1.19-.48,2.56.36,4.12,0,4.45-1.25,5.64-7.02,8.38-10.35,7.25.9,9.04-5.42,9.28-10.54-4.04.78-8.92,1.31-9.64-2.2-.36-2.56,1.96-3.69,2.62-6.13-1.9-3.28-6.97-.72-7.45,2.2ZM277.98,264.06c-1.43,0-1.13-1.73-2.85-1.31.24,2.44-2.03,2.44-2.62,3.81.35,1.73,2.62,1.73,3.21,3.28,5.07-.12,6.43-3.81,10.84-4.53-.83-5.95-5.35-3.21-8.57-1.25ZM293.69,261.8c-1.19,1.84.11,4.94,1.9,5.77,2.98-1.31,2.03-6.31-1.9-5.77ZM310.36,274.89c1.37-1.61.71-5.72-1.67-5.72-.96,1.31-1.43,6.43,1.67,5.72ZM258.7,278.22c2.02,1.13,6.78,1.49,8.33-.36-1.13-2.2-1.13-4.1-.95-6.06-3.21,1.25-6.31,2.91-7.37,6.42ZM311.9,279.71c2.62.47,7.85,1.13,8.46-1.49-1.31-3.33-8.92-3.15-8.46,1.49ZM275.71,285.84c-1.42.12-.83-1.74-2.26-1.61-1.9.05-1.9,2.02-3.57,2.26-.65-.24-1.07-.71-2.26-.65-.72.65-1.79,1.01-1.55,2.49,1.66-.71,2.15-.41,3.51.36.53-.6.35-1.85,1.61-1.85-.24,4.76-3.16,9.7-8.63,10.17-.54,2.56-2.2,3.82-3.86,5.18-1.31,5.89.35,11.31,6.08,11.31.41-1.07.28-2.74.35-4.28-1.66-1.55-3.22-3.16-2.56-7.03.9-.78,2.02-1.37,3.81-1.31,2.43-2.26,4.58-5,6.13-8.33-1.07-3.58,2.62-6.07,4.16-3.15,0,.95-1.01,2.62.59,2.56,1.31-.36,0-1.3,0-2.26,1.61-2.08,5.12-2.2,6.13-4.82-2.44-3.81-5.05-.12-7.68.96ZM260.24,291.73c1.79-1.49,2.39-5,1.31-7.49-3.22,0-3.81,6.19-1.31,7.49ZM301.37,292.56c.24,1.19,2.67.59,3.51.36,0-.42.12-.71.36-.95-.48-.77-1.44-1.24-2.32-1.61.35,1.61-1.66.84-1.55,2.21ZM328.61,296.43c-1.25.58-2.55,1.01-3.15,2.26-.47,2.14.83,6.01-1.01,6.72-3.09-2.2-5.41-.54-7.43,1.67-1.56-.3-2.02-1.79-4.41-1.31-.23,1.07-1.18,5,.6,5.12,1.79-.36-.95-3.33,1.31-3.33.59,1.55,1.66,2.51,2.5,3.69-.12,2.39-.96,7.2.35,8.99,3.81-1.13.17-9.7,4.88-10.06,1.54.9,1.13,3.81,1.26,6.12,1.36.6,3.03,2.69,5.41,2.92,2.61.29,7.31-.6,8.33-2.56-1.68-1.31-4.41-1.37-5.72-2.92-.53-.36-.35-1.67-.35-2.5-3.15-2.14-4.64-7.49-3.21-12.25.47-1.55,3.68-3.75.95-5.48-.48.54-.24,1.91-.31,2.92ZM268.94,315.05v.9c2.85-.3,3.51,3.16,5.83,2.32-.72-2.2-3.46-3.81-5.83-3.22Z"/>
    <path class="cls-1" d="M727.98,305.78c-3.1-2.02-7.14.83-10.36,1.54-3.87.95-7.32.89-8.93,4.23-.72,1.54-.36,3.27-.95,4.75-2.62,6.25-8.69,7.86-13.45,11.84-3.21.6-7.02-.65-10.89,0-2.62.48-3.86,2.15-8.03,1.32-5.95-1.08-14.11-5.01-15.42-8.34-2.56-6.42,4.46-7.49,8.69-9.28,1.14-6.42-3.51-5.41-9.04-6.06-2.62-.36-5.66-1.37-7.09-1.02-1.43.42-5.34,5.35-6.66,8.39-.72,1.55-.6,3.69-1.31,5.12-1.9,3.81-9.28,7.91-13.44,7.62-5.3-.18-6.19-4.88-12.21-5.65-1.37-2.68-1.84-6.49,0-8.1,1.49-1.25,5.54-.59,7.38-1.96,2.2-1.54,7.19-14.34,5.48-20.47-1.13-3.93-6.26-7.38-7.09-10.53-.23-1.19-.35-3.87-.35-5.54,0-7.74.23-18.26,4.88-23.98,1.91-2.44,5.35-3.68,7.74-6.12,4.28-4.65,4.87-12.14,11.18-13.75-.17-4.47-1.43-7.61-2.26-11.31,2.38-2.92,4.88-5.84,10.89-5.18,1.01-1.42-1.26-3.09.29-4.46,2.56-.95,7.27-1.19,8.93.36,3.39-1.43,7.26-2.03,11.01-2.62,6.6-1.01,10.35,5.65,12.79,10.06,1.78,3.1,3.33,4.94,3.87,9.88.23,2.26.05,5.18,0,8.09,0,2.55.29,5.6,0,7.32-1.13,6.37-10.3,13.45-2.21,17.61,4.23-.54,9.16.84,13.68,0,2.38-.42,4.65-2.32,6.13-2.56,4.83-.83,10.66-.48,14.46,0,9.4,1.25,16.78,7.38,22.73,12.85.12,3.75,2.92,6.97,3.57,11.13.95,6.66.71,17.19-.3,23.8-.54,3.33-1.72,6.49-.65,11.19.48,2.14,2.37,3.39,2.2,5.17-.31,4.23-5.66,4.23-10.19,5.48-8.09,2.21-16.66,6.19-20.23-1.9.18-4.77-.53-7.14,1.31-10.36,1.67-3.1,6.54-4.17,3.82-8.57ZM676.32,223.36c.11-2.08-2.27-2.5-2.86-4.52-.6-1.72.77-4.04-1.07-5.54-3.93,3.1-.53,10.84,3.93,10.06ZM685.61,222.4c1.19.12,2.02-.17,2.49-.71-.41-2.8-1.55-5-4.11-5.71-.53,1.79,1.5,4.05,1.62,6.42ZM660.26,217.77c.23,5.41,4.81,5.71,7.73,8.74,2.27,2.44,2.86,5.66,5.72,6.07,3.27-3.93-2.98-8.45-6.37-9.88-1.48-2.2-3.27-5.95-7.07-4.93ZM649.66,237.1c0-.78-1.2-2.44-2.49-2.26-1.44.24-3.94,6.6-3.94,7.38,2.38.18,6.55-3.04,6.44-5.12ZM663.11,236.15c-1.49.18-3.21-1.55-4.4-1.31-1.43.35-3.09,3.99-.72,4.46,1.43-.89,6.67-2.08,8.69,0,1.96-1.25,1.01-3.45-.72-4.46-1.43-.06-1.25,1.07-2.85,1.31ZM675.71,239.66c-3.2,1.44-3.33,5.84-6.42,7.32-5.35-2.14-11.31-3.57-18.68-3.69-.95,2.13-6.19,3.09-7.02,6.06-.95,3.04,0,7.14,1.54,9.17,3.82-1.66,4.17-15.11,9.41-7.67-.47,1.9-1.9,2.91-2.33,4.87,2.15,1.43.96,4.53,1.98,6.78,3.93,0,2.19-5.53,4.82-6.78,2.07-.47,4.7-.47,6.71-1.07,3.09,2.2,5.48,6.3,10.84,4.34,2.86,2.92,8.21,4.05,7.8,9.17,2.44,0,3.98-2.62,3.74-4.11-.24-3.03-6.73-5.54-9.89-7.38-1.84-1.13-3.33-2.68-5.11-3.58-2.15-1.01-5.11-.89-5.47-3.21.24-1.07,2.15-.48,3.22-.54,2.38-1.13,2.38-4.75,4.87-5.82,1.67.29,2.44,3.15,4.11,2.44.06-2.21-1.96-5.12-4.11-6.32ZM636.93,258.52c2.26,3.98,4.76-1.78,3.16-4.76-2.56.12-2.8,2.62-3.16,4.76ZM660.97,260.85c.89,2.2,2.62,3.57,2.79,6.36-1.37,3.57-6.61,2.08-9.94,2.2.77,4.53,1.66,11.49,9.28,10.06,2.5,3.86,4.4,8.15,8.45,10.59,5.59-2.14,5.13,3.45,9.88,3.21,2.85.83,2.73,6.25,5.42,6.43,3.15.23,3.33-5.54,2.32-8.69-2.74-1.13-5.18-.17-8.1-1.31-1.36-.54-2.38-2.38-3.81-2.86-2.15-.72-4.46.12-6.42-.72-2.74-1.07-4.89-5.23-4.89-8.63.66-1.54,3.57-.71,3.93-2.61-.12-1.19-.95-1.61-1.91-1.84-1.19,1.84-4.34,4.46-6.13,1.25,1.25-2.67,3.39-4.28,2.92-8.74.83-1.13,3.21-.77,3.51-2.5-.18-3.22-5.53-5.24-7.31-2.2ZM719.28,265.13c4.16.89,5.95,4.46,10.94,4.7.47-1.66,3.1-1.49,3.46-3.28-.95-1.25-3.03-1.37-2.85-3.81-1.91-.42-1.43,1.55-3.22,1.31-3.09-2.38-7.01-4.17-8.32,1.07ZM710.6,267.57c1.42-1.07,2.85-3.39,1.9-5.77-4.1-.6-5.36,4.76-1.9,5.77ZM696.55,269.17c-1.43.84-2.45,4.23-.95,5.72,3.16.77,3.45-5.3.95-5.72ZM738.8,278.22c2.09,1.37,5.84.83,8.39.3-.83-3.86-4.11-5.42-7.38-6.72.3,2.02,0,4.1-1.01,6.42ZM685.95,278.76c1.07,1.72,5.72,1.54,7.98.95.83-4.82-7.74-5-7.98-.95ZM722.49,285.18c1.54,1.96,4.46,2.69,6.07,4.53-.13.71-.59,1.66,0,2.26,2.02-.17.83-1.54.65-2.92,4.81-3.51,4.22,4.88,6.37,7.97,1.42,2.09,3.21,2.33,3.92,3.88,1.18.24,2.5.35,3.56.65,2.74,4.88-4.51,7.08-1.65,11.96,7.14.95,8.21-11.85,2.98-13.8,0-1.07-.48-1.55-.72-2.27-5.35-.72-9.16-6.24-8.69-10.59,1.19,2.38,3.03.54,5.11,1.49-.11-1.37-1.07-1.96-2.2-2.49-.9.05-1.37.65-2.32.65-.83-.71-1.43-1.85-2.86-2.26-1.42,0-1.06,1.9-2.8,1.61-2.08-1.74-5.53-4.52-7.43-.66ZM746.17,291.37c1.84-1.78,1.19-7.02-1.54-7.14-1.44,2.14-1.03,6.43,1.54,7.14ZM701.01,292.56c.77.71,2.08.71,3.52.71,0-.54.1-.71.34-1.07-1.18-.78-3.8-2.8-3.86.36ZM678.21,299.35c-.59,3.15,0,5.6-.35,8.93-1.67,1.55-3.45,2.73-3.09,5.47-1.67,1.6-5.12,1.37-6.14,3.57,4.11,2.26,11.13,2.44,13.81-1.02.41-2.19-.53-5.82,1.91-6.12,4.04.83.52,9.1,4.52,10.06,1.14-1.97.78-7.08,0-8.99,1.49-.95,1.49-3.21,3.52-3.69.23,1.07-.72,3.33.59,3.33,1.3-.78,1.12-4.05.36-5.12-2.68-.6-2.68,1.31-4.82,1.31-1.19-3.16-4.53-3.33-7.44-1.67-1.06-1.96-.35-3.99-.59-6.96-2.38-.9-3.1-3.28-3.93-4.94-1.19,2.68.83,4.41,1.65,5.84ZM731.42,318.57c2.26-.66,3.93-1.9,5.53-3.22-1.84-1.25-5.53.54-5.53,3.22Z"/>
    <path class="cls-1" d="M563.08,233.59c1.96-.29,2.55-2.56,5.17-2.2,4.05.3,5.01,11.25,5.48,16.66.73,9.52-.12,35.12-9.64,26.61-.23-2.09.13-3.52.61-4.83-4.53-2.68-13.58-4.7-21.49-5.47-3.99-.3-9.59.24-8.04-5.12,1.26-4.28,11.31-1.54,15.41-1.01,6.37,1.07,10.06,2.15,15.06,3.57,1.07-.83.48-3.27,1.01-4.82-3.73-2.8-16.41-6.13-24.69-6.67-4.05-.29-8.09.18-8.09-3.87,0-1.84,1.43-2.38,2.61-3.57,11.54.18,20.88,2.44,29.52,5.42,2.38-8.08-8.21-9.1-14.17-10.59-5.95-1.37-12.02-1.67-16.66-2.2-2.61-1.31-2.37-6.61,1.61-6.73,7.39-.18,21.48,2.62,26.31,4.82Z"/>
    <path class="cls-1" d="M514.34,324.7c-7.14-9.29,15.71-8.34,18.56-13.15-3.15-1.61-7.61-2.38-11.84-2.92-4.34-.59-8.81-1.07-12.85-1.07.29,6.43,3.15,17.38-3.75,19.34-4.88,1.24-19.87-.12-20.58-3.57-1.5-7.92,11.42-2.74,17.25-3.51,1.54-3.46.18-9.22-.95-12.26-11.48-.96-22.49,1.25-32.02,3.33,2.85,4.46,11.19,3.33,11.85,7.68,1.61,9.57-14.94-.12-17.32-1.67-9.04-5.18-15.65-11.19-22.14-19.88-2.55-3.38-7.73-9.93-7.38-13.38.36-3.46,7.92-5.42,12.85-6.73,28.87-7.79,62.13-10.77,94.26-4.22,4.35.89,9.35,2.56,14.4,4.22,4.23,1.31,12.08,3.04,12.62,6.07.66,3.99-6.73,13.39-8.39,15.72-7.32,9.82-14.87,15.94-26.25,21.12-5.35,2.38-11.42,5.05-18.32,4.88ZM442.09,285.84c4.35,8.27,10.47,14.58,17.38,20.23,4.65-1.67,9.7-3.03,15.11-3.87-2.14-2.03-4.83-3.21-7.74-5.48-2.13-1.6-6.3-3.98-6.12-7.31.29-3.51,7.79-5.3,12.85-6.43,16.84-3.74,36.59-3.27,52.66.24,5,1.19,13.46,2.51,13.46,6.49,0,2.26-3.82,5.54-5.83,7.02-2.74,2.27-5.84,2.5-7.62,5.48,5.95.42,10.47,2.32,15.35,3.87,7.27-5.06,12.73-11.9,16.66-20.23-30.59-12.79-85.15-11.91-116.15,0ZM472.33,291.37c12.49,10.9,42.97,10.9,55.46,0-14.88-4.88-40.64-4.88-55.46,0Z"/>
    <path class="cls-2" d="M286.91,513.15c0-.72-.3-1.6-.6-2.98-.36-1.25-.65-2.19-1.01-2.55-.53-.83-1.56-1.43-3.15-1.67-1.56-.24-3.45-.42-5.83-.42h-34.1v-2.91l38.02-28.09h-23.98c-2.67,0-4.7.12-6.13.48-1.49.3-2.5.78-3.1,1.61-.47.48-.95,1.55-1.31,3.09-.48,1.55-.72,2.56-.72,3.04h-2.26v-18.98h2.26c.12.59.24,1.6.72,2.92.36,1.43.72,2.26.95,2.61.6.78,1.54,1.37,2.73,1.55,1.31.3,3.46.53,6.55.53h22.85c.95,0,1.97-.23,2.98-.59,1.07-.36,1.78-.77,2.37-1.37.72-.89,1.31-1.96,1.85-3.21.54-1.31.78-2.44.89-3.33h2.26v13.33l-35.47,26.07h22.14c2.69,0,4.82-.07,6.25-.48,1.48-.24,2.45-.84,2.92-1.55.41-.59.83-1.49,1.18-2.92.36-1.43.6-2.49.71-3.15h2.26v18.98h-2.26Z"/>
    <path class="cls-2" d="M246.56,566.17l-2.03-19.16,2.32-.24c.3,1.66.66,3.1,1.14,4.16.35,1.07.83,1.55,1.43,1.55.13,0,.36-.06.59-.18.24-.06.53-.12.71-.3l10-4.82-1.6-16.25c-1.62-.48-2.98-.89-4.11-1.07-1.19-.29-2.25-.6-3.21-.71-1.07-.23-1.79-.23-2.38-.36h-1.43c-.89.13-1.43.78-1.84,2.26-.29,1.43-.42,2.91-.35,4.64l-2.32.24-1.8-17.5,2.32-.12c.13.54.31,1.25.59,2.14.31.77.66,1.43,1.14,1.9.6.9,1.31,1.43,1.96,1.91.65.41,1.61.77,2.8,1.13,6.07,1.72,12.86,3.51,20.35,5.71,7.5,2.02,14.17,3.86,20.11,5.53l.24,2.56-38.39,19.52c-.77.3-1.49.78-1.96,1.25-.47.48-.95,1.13-1.3,1.97-.24.54-.48,1.19-.55,1.97-.18.83-.18,1.49-.18,2.08l-2.26.18ZM263.46,545.7l17.32-8.8-18.63-5.12,1.31,13.92Z"/>
    <path class="cls-2" d="M301.78,614.79c-.12-.54-.48-1.49-1.08-2.68-.59-1.07-1.19-1.9-1.6-2.38-.65-.6-1.84-.89-3.45-.89-1.5.06-3.51.36-5.84.89l-33.26,7.32-.59-2.74,31.12-35.7-23.44,5.12c-2.62.54-4.58,1.19-5.89,1.84-1.36.72-2.26,1.43-2.74,2.21-.36.59-.6,1.72-.6,3.27-.11,1.73-.11,2.79,0,3.15l-2.25.6-4.17-18.63,2.26-.53c.23.59.71,1.49,1.37,2.79.65,1.32,1.13,2.02,1.54,2.33.78.71,1.72.95,3.04.95s3.46-.24,6.43-.95l22.31-4.94c1.01-.24,1.96-.59,2.92-1.13.83-.6,1.48-1.25,1.9-1.9.6-.9.95-2.21,1.19-3.52.12-1.49.18-2.62.06-3.39l2.25-.48,2.92,12.91-29.03,33.27,21.54-4.89c2.74-.59,4.63-1.13,6.07-1.85,1.37-.59,2.14-1.25,2.5-2.08.23-.66.47-1.78.53-3.15.07-1.43.07-2.56-.06-3.15l2.26-.6,4.11,18.51-2.32.41Z"/>
    <path class="cls-2" d="M316.3,642.1c-.35-.53-.84-1.19-1.37-1.84-.59-.65-1.13-1.19-1.62-1.66-.65-.54-1.24-.83-1.89-.66-.61.07-1.32.24-1.92.66l-23.92,13.69c-1.24.71-2.68,1.25-4.4,1.48-1.67.3-3.34.3-5,0-1.9-.48-3.69-1.13-5.35-2.26-1.55-1.13-2.92-2.8-4.11-4.76-1.72-2.97-2.39-5.95-1.72-8.98.71-2.92,2.38-5.18,5.41-6.85,1.2-.7,2.56-1.07,3.99-1.07,1.31.13,2.39.83,3.22,2.14.53,1.19.77,2.14.48,3.22-.12,1.07-.83,1.91-1.84,2.56-.65.35-1.38.59-2.09.71-.71.12-1.36.12-2.01.12-.66-.06-1.31-.06-2.15-.06-.78-.06-1.48,0-2.03.06-.35.72-.59,1.66-.59,2.86,0,1.13.41,2.32,1.18,3.74.85,1.43,1.91,2.33,2.98,2.8,1.13.53,2.38.71,3.69.53,1.19-.12,2.62-.53,4.18-1.19,1.54-.72,3.21-1.43,4.94-2.44l21.36-12.32c.59-.42,1.13-.83,1.43-1.19.36-.53.48-1.18.48-2.07-.07-.78-.3-1.67-.59-2.68-.36-.96-.72-1.67-1.01-2.33l2.08-1.12,10.18,17.73-1.97,1.19Z"/>
    <path class="cls-2" d="M299.94,695.3l-12.69-16.6,1.8-1.43c.47.41,1.07,1.13,1.73,1.96.77.78,1.37,1.37,1.72,1.67.72.35,1.31.48,1.9.48.6-.13,1.26-.37,1.91-.83l26.77-20.48c.61-.42,1.09-.89,1.38-1.43.24-.47.24-1.19,0-2.14-.24-.71-.53-1.55-.94-2.44-.43-.9-.79-1.55-1.14-2.14l1.84-1.43,12.67,16.61-1.9,1.42c-.35-.53-.95-1.07-1.61-1.72-.65-.71-1.3-1.25-1.96-1.67-.59-.48-1.3-.66-1.96-.54-.66.12-1.25.41-1.84.83l-26.72,20.47c-.52.41-1,.89-1.25,1.49-.24.66-.29,1.25-.12,2.13.19.36.55,1.19.96,2.03.48,1.01.9,1.79,1.31,2.32l-1.84,1.43Z"/>
    <path class="cls-2" d="M379.86,711.79c-.48-.42-1.31-.95-2.38-1.61-1.19-.59-2.02-.95-2.73-1.07-.96-.12-2.03.24-3.34,1.13-1.18,1.01-2.73,2.32-4.27,4.05l-23.58,24.63-2.02-1.96,5.83-46.96-16.54,17.32c-1.85,2.02-3.15,3.51-3.93,4.88-.71,1.25-1.01,2.44-.95,3.26,0,.78.47,1.79,1.32,3.16.83,1.37,1.42,2.26,1.78,2.63l-1.55,1.66-13.87-13.21,1.67-1.6c.41.42,1.25.89,2.56,1.54,1.32.72,2.14,1.13,2.61,1.13,1.02.06,2.03-.24,3.09-1.07,1.01-.71,2.62-2.08,4.65-4.28l15.95-16.61c.59-.77,1.18-1.48,1.66-2.5.41-1,.61-1.84.54-2.61-.07-1.19-.42-2.32-1.02-3.57-.65-1.37-1.18-2.25-1.78-2.97l1.54-1.67,9.65,9.23-5.47,43.67,15.23-15.95c1.85-2.02,3.22-3.69,3.93-4.88.7-1.3.95-2.37.95-3.21-.24-.66-.71-1.73-1.43-2.92-.72-1.19-1.3-2.08-1.78-2.68l1.54-1.67,13.68,13.03-1.54,1.67Z"/>
    <path class="cls-2" d="M406.16,759.63c-.48-.23-1.2-.54-1.91-.95-.83-.36-1.48-.59-2.08-.71-.78,0-1.38.06-2.03.41-.47.3-1,.84-1.49,1.55l-2.02,2.98c-1.44,2.19-2.5,3.63-2.92,4.41-.54.83-.89,1.36-1.13,1.9-3.22-.53-6.18-1.25-8.93-2.32-2.74-1.13-5.36-2.32-7.62-3.81-2.44-1.79-4.52-3.81-6.12-6.25-1.73-2.5-2.79-5.12-3.33-7.91-.54-3.04-.54-6.01.18-9.11.59-3.1,1.9-6.31,4.04-9.28,1.9-2.98,4.29-5.36,6.96-7.2,2.67-1.84,5.53-3.09,8.5-3.75,2.92-.66,5.96-.66,8.99-.07,3.03.6,6.01,1.86,8.63,3.64,2.15,1.49,3.93,3.04,5.23,4.71,1.19,1.61,2.14,3.1,2.97,4.7l2.26-1.13,2.21,1.55-8.87,13.62-2.14-1.54c.6-1.79,1.07-3.39,1.42-5.3.48-1.84.6-3.57.48-5.42-.12-1.72-.59-3.39-1.42-4.88-.78-1.49-2.15-2.92-3.81-4.11-2.03-1.25-3.94-2.08-6.02-2.32-2.08-.24-4.22,0-6.37.83-2.15.71-4.28,2.02-6.31,3.99-2.15,1.84-4.17,4.05-6.07,6.78-1.6,2.44-2.86,4.94-3.74,7.55-.89,2.56-1.25,5.06-1.25,7.38.06,2.33.6,4.59,1.67,6.67,1.06,1.96,2.68,3.75,4.77,5.24,1.66,1.07,3.2,1.9,4.87,2.14,1.66.35,2.97.59,3.81.35.84-.89,1.56-1.66,2.21-2.68.65-.95,1.24-1.79,1.66-2.38l1.38-2.14c.59-.78.95-1.49,1.07-2.21.24-.71.17-1.49-.36-2.2-.48-.66-1.06-1.49-1.96-2.25-1.01-.84-1.73-1.49-2.32-1.79l1.31-2.14,16.95,11.48-1.36,1.96Z"/>
    <path class="cls-2" d="M522.79,767.19c-.61,0-1.43.12-2.62.41-1.19.24-2.15.54-2.91,1.01-.78.54-1.25,1.6-1.5,3.16-.29,1.55-.47,3.45-.47,5.71v20.24c0,2.5-.54,4.76-1.61,6.66-1.13,1.96-2.5,3.51-4.22,4.76-1.68,1.13-3.52,2.08-5.48,2.49-1.9.6-3.68.84-5.48.84-2.74,0-5.29-.36-7.44-1.13-2.2-.71-3.98-1.72-5.53-2.98-1.43-1.25-2.56-2.61-3.21-4.29-.83-1.6-1.19-3.26-1.19-5v-27.37c0-.89-.12-1.5-.36-2.02-.23-.54-.78-1.02-1.55-1.37-.48-.35-1.19-.65-2.08-.83-.89-.17-1.6-.29-2.08-.29v-2.38h19.28v2.38c-.6,0-1.37.05-2.27.24-.95.17-1.6.41-2.02.53-.83.18-1.31.71-1.48,1.25-.3.72-.42,1.43-.42,2.14v25.6c0,1.19.12,2.56.42,3.87.29,1.37.83,2.61,1.61,3.87.89,1.19,2.02,2.14,3.51,2.86,1.49.77,3.39,1.25,6.02,1.25,2.37,0,4.4-.48,6.06-1.25,1.56-.72,2.91-1.67,3.81-2.92.83-1.19,1.55-2.44,1.96-3.75.3-1.31.54-2.5.54-3.87v-18.99c0-2.49-.24-4.46-.54-6.01-.41-1.49-.89-2.56-1.48-3.03-.83-.54-1.9-.96-3.16-1.31-1.38-.23-2.37-.47-3.09-.47v-2.38h18.99v2.38Z"/>
    <path class="cls-2" d="M576.76,743.63c-.54.35-1.37.83-2.31,1.66-1.09.89-1.79,1.54-2.15,2.08-.48.78-.53,1.91-.12,3.39.3,1.6.95,3.44,1.89,5.59l13.63,31.18-2.67,1.25-40.94-23.63,9.58,21.96c1.01,2.44,1.96,4.29,2.92,5.42.89,1.31,1.79,1.96,2.62,2.2.71.3,1.84.3,3.38,0,1.62-.18,2.68-.42,3.15-.59l.95,2.14-17.55,7.69-.95-2.21c.59-.23,1.36-.89,2.56-1.84,1.07-.83,1.72-1.54,1.96-1.9.48-.84.54-1.97.3-3.28-.23-1.25-.95-3.15-2.14-6.07l-9.16-20.95c-.48-.89-.96-1.84-1.66-2.56-.72-.72-1.42-1.25-2.27-1.54-.95-.25-2.21-.54-3.57-.42-1.48.11-2.62.3-3.38.66l-.9-2.2,12.14-5.3,38.08,22.02-8.8-20.29c-1.08-2.44-2.08-4.28-2.98-5.53-.9-1.26-1.74-1.91-2.56-2.03-.77-.24-1.73-.24-3.21,0-1.37.24-2.44.54-3.15.77l-.9-2.2,17.31-7.44.9,1.97Z"/>
    <path class="cls-2" d="M623.29,770.52l-18.8,9.17-1.01-2.09c.54-.24,1.25-.77,2.27-1.25.95-.6,1.61-1.13,1.9-1.43.48-.65.84-1.25.89-1.84.06-.6-.05-1.31-.41-1.96l-14.89-30.23c-.23-.71-.65-1.31-1.06-1.67-.48-.3-1.19-.42-2.14-.36-.71.06-1.55.24-2.5.36-1.07.3-1.79.54-2.38.78l-1.08-2.08,18.87-9.16,1.01,2.08c-.6.3-1.25.78-2.09,1.25-.77.47-1.49,1.01-1.97,1.6-.59.54-.94,1.32-.94,1.97,0,.53.23,1.19.47,1.84l14.77,30.23c.29.66.71,1.19,1.3,1.49.48.42,1.19.54,2.03.48.48,0,1.25-.12,2.26-.48.96-.24,1.84-.53,2.5-.77l1.01,2.09Z"/>
    <path class="cls-2" d="M646.09,697.51c-.42.47-.97,1.01-1.44,1.67-.47.65-.77,1.42-.95,1.96-.29.83-.48,1.54-.29,2.44.11.77.29,1.78.53,2.79,1.06,3.7,2.74,9.29,5,16.79,2.37,7.56,4.76,15.42,7.25,23.63l-2.08,1.66c-7.74-4.58-15.17-8.99-22.31-13.39-7.26-4.28-12.08-7.14-14.63-8.68-.6-.3-1.25-.6-1.97-.78-.66-.05-1.36-.05-2.2,0-.72.12-1.43.3-2.08.59-.65.3-1.25.66-1.79.89l-1.49-1.78,15-11.96,1.55,1.78c-1.31,1.14-2.26,2.15-2.98,2.98-.71.89-.83,1.55-.47,2.02.11.23.36.47.58.6.3.24.48.42.72.54,1.91,1.18,5.12,2.97,9.58,5.65,4.47,2.8,10.76,6.49,18.98,11.31-1.31-4.16-2.74-9.11-4.47-14.76-1.79-5.65-3.03-9.46-3.75-11.54-.64-2.08-1.19-3.33-1.54-3.93-.42-.71-.77-1.25-1.01-1.67-.3-.41-.79-.6-1.37-.54-.59,0-1.19.12-1.9.42-.71.3-1.43.65-2.14,1.07-.6.36-1.2.71-1.79,1.13l-1.54-1.84,13.56-10.77,1.44,1.73Z"/>
    <path class="cls-2" d="M698.03,682.39l9.94,9.4-24.75,29.64-1.78-1.43c.42-.54.89-1.31,1.56-2.2.53-.95.89-1.54.94-2.03.23-.66.17-1.24,0-1.78-.24-.59-.71-1.13-1.31-1.6l-25.64-21.48c-.54-.47-1.13-.78-1.74-.89-.53-.18-1.18-.12-2,.24-.61.24-1.21.77-2.04,1.31-.83.66-1.42,1.19-1.9,1.61l-1.72-1.37,23.03-27.73,8.57,7.2-1.55,1.9c-1.54-.77-3.57-1.19-5.83-1.19-2.44-.07-4.1.35-5.06,1.19-.54.48-1.02,1.07-1.72,1.67-.6.65-1.31,1.55-2.15,2.44l-4.53,5.66,14.05,11.78,3.46-3.99c1.01-1.25,1.72-2.32,2.02-3.09.24-.84.24-1.73,0-2.56-.12-.83-.54-1.67-1.19-2.68-.59-.9-1.19-1.72-1.8-2.45l1.55-1.84,13.92,11.67-1.49,1.78c-.9-.48-1.9-1.07-3.03-1.49-1.07-.47-2.03-.71-2.74-.77-1.07,0-2.03.23-2.74.77-.83.42-1.6,1.25-2.5,2.44l-3.45,3.93,10.84,8.93c1.07.95,1.9,1.54,2.68,1.9.77.41,1.49.41,2.2.36.6-.18,1.37-.66,2.14-1.31.6-.65,1.55-1.79,2.79-3.21.37-.54,1.03-1.13,1.74-2.14.82-.77,1.42-1.61,1.83-2.32.55-.66.9-1.55,1.31-2.37.42-.72.54-1.44.42-1.91,0-1.49-.59-3.27-1.6-5.59-.9-2.15-1.68-3.63-2.21-4.58l1.48-1.78Z"/>
    <path class="cls-2" d="M736.6,639.07l-5.95,10.83c-5.18.48-9.71.89-13.51,1.43-3.81.36-7.85.95-12.02,1.66l-2.32,4.17,12.91,7.02c.71.35,1.37.59,1.9.66.72,0,1.31-.18,1.97-.72.35-.3.78-.89,1.36-1.66.6-.72,1.07-1.49,1.38-2.15l2.08,1.13-9.4,17.32-2.03-1.12c.24-.48.48-1.19.89-2.15.42-.89.54-1.48.59-1.9.07-.72-.05-1.26-.42-1.85-.35-.53-.89-.95-1.54-1.42l-29.64-16.07c-.59-.24-1.31-.48-1.91-.6-.65-.12-1.3.12-1.9.6-.47.48-.95,1.07-1.48,1.73-.59.66-1.13,1.25-1.37,1.79l-2.08-1.02,10.29-18.98c.95-1.73,1.91-3.33,3.1-4.47,1.18-1.37,2.5-2.44,3.98-3.33,1.37-.78,2.92-1.13,4.59-1.19,1.54,0,3.27.35,4.99,1.37,1.62.9,2.86,1.91,3.8,3.03.97,1.07,1.62,2.32,2.03,3.81.36,1.31.48,2.74.48,4.29-.11,1.42-.36,3.1-.71,4.76,3.81-.54,7.02-1.01,9.52-1.3,2.5-.36,5.59-.84,9.29-1.31,1.6-.24,2.92-.53,3.74-.83,1.01-.48,1.73-.83,2.44-1.37.59-.42,1.06-.95,1.67-1.6.52-.66.88-1.25,1.19-1.67l2.08,1.13ZM697.92,637.64c-2.5-1.36-4.83-1.72-7.09-1.06-2.14.65-3.98,2.32-5.35,4.88l-2.74,4.94,17.6,9.41,2.03-3.76c1.43-2.62,1.78-5.3,1.07-7.98-.77-2.73-2.62-4.75-5.53-6.43Z"/>
    <path class="cls-2" d="M724.64,599.38c1.31-.71,2.61-1.07,3.98-1.19,1.42-.12,2.92,0,4.58.48,4.05.95,6.9,3.28,8.7,6.9,1.78,3.63,2.14,7.56,1,11.96-.53,1.9-1.36,3.92-2.44,5.77-1.18,1.97-2.37,3.34-3.69,4.58l1.97,1.96-.66,2.62-15.47-3.62.71-2.56c2.03,0,3.8-.24,5.59-.59,1.73-.23,3.34-.77,5-1.54,1.55-.84,2.85-1.91,3.99-3.1,1.13-1.31,1.9-2.86,2.44-4.88.35-1.43.54-2.86.41-3.93-.06-1.25-.41-2.2-.95-3.03-.53-.96-1.24-1.66-1.96-2.27-.95-.53-2.02-1.01-3.2-1.37-1.8-.36-3.64-.36-5.42.23-1.85.67-3.39,1.91-4.7,3.7-.96,1.25-1.96,2.61-3.1,4.28-1.07,1.49-2.14,2.97-3.09,4.16-1.78,2.2-3.75,3.69-6.01,4.64-2.21.95-4.82,1.01-7.74.29-1.73-.46-3.22-1.3-4.58-2.37-1.25-1.13-2.32-2.32-3.1-3.99-.82-1.49-1.3-3.21-1.48-4.93-.18-1.91-.07-3.69.42-5.54.59-2.02,1.3-3.86,2.37-5.29,1.07-1.49,2.14-2.8,3.46-3.81l-1.91-1.97.59-2.61,15.06,3.68-.66,2.63c-1.79,0-3.57.06-5.3.23-1.73.18-3.27.54-4.83,1.14-1.48.6-2.66,1.48-3.79,2.62-1.07,1.13-1.79,2.55-2.38,4.46-.49,2.09-.24,3.99.6,5.66.95,1.72,2.38,2.86,4.17,3.39,1.96.54,3.68.42,5.23-.12,1.54-.53,2.92-1.66,4.17-3.09,1.12-1.37,2.14-2.74,3.1-4.11.95-1.37,1.9-2.62,2.86-3.87.83-1.07,1.78-2.2,2.79-3.16,1.01-.94,2.08-1.84,3.28-2.43Z"/>
    <path class="cls-2" d="M752.25,568.56l-2.85,20.71-2.32-.31c.06-.71.12-1.48.18-2.61.11-1.13.06-1.85-.06-2.44-.17-.66-.53-1.25-.95-1.67-.42-.41-1.13-.65-1.97-.77l-33.39-4.46c-.77-.06-1.36,0-1.89,0-.54.24-1.14.71-1.55,1.6-.3.59-.72,1.31-1.02,2.32-.35.9-.71,1.73-.83,2.39l-2.27-.3,2.86-20.71,2.25.3c-.05.6-.05,1.43-.05,2.38,0,1.01.05,1.78.18,2.55.18.78.53,1.37,1.07,1.79.53.35,1.19.59,1.9.59l33.33,4.64c.72.12,1.31,0,1.9-.18.66-.23,1.2-.78,1.56-1.54.24-.36.59-1.07.89-2.03.42-1.01.59-1.9.71-2.62l2.32.36Z"/>
    <path class="cls-2" d="M722.73,513.45l-.11,2.2c-.84.19-1.78.54-2.8,1.01-1.13.48-2.2,1.02-3.15,1.55-.95.66-1.9,1.31-2.62,2.14-.83.71-1.3,1.43-1.42,2.21-.12.65-.24,1.49-.35,2.49,0,1.01-.12,2.02-.12,2.86l-.13,1.96,37.2,1.31c.71,0,1.37-.06,1.96-.36.72-.23,1.07-.84,1.42-1.55.24-.35.48-1.13.84-2.44.24-1.24.42-2.14.48-2.85l2.33.06-.9,21.95-2.26-.11c0-.54-.13-1.61-.19-2.8-.06-1.31-.18-2.08-.42-2.61-.23-.66-.59-1.31-1.12-1.66-.54-.36-1.26-.54-2.15-.6l-37.43-1.43-.11,1.96v2.5c0,.95,0,1.97.11,2.8.07.78.48,1.55,1.19,2.38.72.77,1.61,1.54,2.56,2.2.9.66,1.97,1.37,3.04,1.91,1.07.54,2.02.89,2.74,1.07l-.12,2.32-12.61-.47,1.54-40.53,12.62.54Z"/>
    <path class="cls-2" d="M713.09,462.69c.06.29.24.95.36,1.79.36.77.59,1.42.83,1.72.48.89.89,1.42,1.13,1.78.3.3,1.07.89,2.2,1.72,2.44,1.85,4.82,3.4,7.27,4.94,2.43,1.43,5.58,3.22,9.28,5.48,1.43.89,2.56,1.49,3.4,1.67.89.42,2.08.53,3.68.53l8.86.12c.79,0,1.56-.12,2.15-.48.47-.3.95-.82,1.32-1.49.24-.53.47-1.36.71-2.5.24-1.19.41-2.02.48-2.79h2.39l-.48,21.77-2.26-.12c0-.59-.13-1.42-.24-2.68-.06-1.18-.24-2.02-.41-2.55-.3-.84-.78-1.31-1.26-1.66-.59-.36-1.3-.48-2.13-.48l-11.31-.11c-.36-.12-.96.11-1.91.53-.95.42-2.02.83-3.1,1.43-2.61,1.31-5.41,2.74-8.32,4.22-2.98,1.55-5.54,2.93-7.68,4.11-1.25.59-2.2,1.19-2.86,1.9-.65.48-1.14,1.07-1.72,1.78-.3.54-.6,1.19-.71,1.9-.24.72-.36,1.37-.42,1.91h-2.27l.3-19.88h2.39c0,2.26.11,3.88.35,4.88.24.84.6,1.31,1.07,1.37.12,0,.36-.06.6-.18.35-.11.84-.35,1.31-.54.59-.3,1.3-.66,1.96-1.01.78-.36,1.49-.71,2.14-1.13,1.97-1.01,3.99-1.96,5.89-3.04,1.92-.95,4.47-2.38,7.62-4.04-5.47-3.46-9.7-6.2-12.85-8.03-2.98-1.85-4.83-2.74-5.42-2.74-.54,0-.96.12-1.25.54-.3.23-.48.77-.71,1.36-.24.66-.36,1.31-.41,2.08-.07.72-.07,1.49-.19,2.09h-2.37l.36-16.19h2.26Z"/>
    <g>
      <path class="cls-2" d="M482.38,654.72c-1.72,0-3.15.71-4.45,2.14-1.33,1.37-1.92,3.21-1.92,5.47,0,1.97.59,3.63,1.8,4.88,1.18,1.26,2.74,1.85,4.51,1.85s3.21-.59,4.41-1.85c1.19-1.25,1.73-3.03,1.73-5.23s-.53-3.93-1.86-5.24c-1.06-1.31-2.54-2.02-4.22-2.02Z"/>
      <path class="cls-2" d="M511.72,654.72c-1.67,0-3.1.71-4.22,2.32-1.25,1.85-1.98,5.42-1.98,10.65s.61,8.51,1.8,10.24c1.3,1.79,2.73,2.63,4.51,2.63,1.68,0,3.22-.84,4.47-2.63,1.19-1.72,1.84-5.06,1.84-10.24s-.66-8.62-1.84-10.35c-1.25-1.67-2.79-2.62-4.58-2.62Z"/>
      <path class="cls-2" d="M685.95,348.44h-371.43c-.48.06-.36.65-.6,1.02-.36,47.72.18,96.88,0,143.35-.36,47.07,6.48,89.62,21.78,123.11,14.99,33.15,39.63,57.01,67.6,77.06,28.45,20.18,64.03,31.01,96.88,47.97,32.73-17.08,68.2-27.73,96.52-48.38,27.97-20.23,53.26-43.43,68.08-76.94,14.76-33.62,21.41-75.04,21.41-123.48s.36-96.39-.24-143.71ZM399.67,559.27c25.24-13.09,50.52-27.49,70.27-46.53-13.09,3.21-23.56,3.57-34.39,3.45,1.78-2.86,4.75-4.64,7.14-6.96,16.66-15.59,35.34-30.47,44.39-54.1-6.12,2.08-13.81,3.81-22.08,3.81,16.25-20.83,29.05-45.28,35.83-75.46h.95c6.67,30.29,19.7,54.45,35.88,75.46-7.26-.48-13.33-.78-21.71-4.04.35,3.5,2.2,6.83,3.75,9.87,8.02,14.76,20.93,26.48,32.96,37.85,4.88,4.52,10.11,8.52,14.4,13.57-13.33,1.19-19.41.12-34.03-3.75,4.75,5.65,11.01,9.82,16.77,14.4,15.72,12.86,34.51,22.44,53.43,32.43,1.49.78,3.82,1.31,4.41,3.28-15.7,2.2-33.15,1.01-50.1-4.41-20.71-7.13-40.34-7.56-54.87,6.01-16.18-13.03-32.19-13.21-58.07-6.37-14.76,4.59-34.04,6.67-49.57,4.77.54-2.14,3.03-2.44,4.65-3.28ZM457.09,683.17h-3.87v-24.58c-.95,1.01-2.21,1.72-3.75,2.5-1.42,1.01-2.73,1.67-3.99,2.14v-3.63c2.2-1.13,3.99-2.39,5.66-3.81,1.66-1.55,2.78-2.87,3.45-4.17h2.5v31.54ZM491.49,676.38c-.95,2.38-2.26,4.22-3.93,5.42-1.79,1.25-3.81,1.9-6.07,1.9-2.51,0-4.52-.66-6.07-2.09-1.54-1.3-2.5-3.21-2.85-5.77l3.68-.36c.35,1.79,1.01,3.09,1.91,3.87.83.89,2.02,1.19,3.38,1.19,1.13,0,2.2-.3,3.16-.84.83-.54,1.55-1.25,2.13-2.2.61-.95,1.08-2.14,1.44-3.64.42-1.55.59-3.09.59-4.76v-.89c-.77,1.37-1.78,2.37-3.21,3.09-1.31.77-2.8,1.19-4.28,1.19-2.62,0-4.82-1.01-6.6-2.86-1.85-1.96-2.8-4.4-2.8-7.49s.95-5.71,2.86-7.68c1.91-1.91,4.28-2.86,7.01-2.86,2.15,0,3.93.54,5.72,1.54,1.67,1.07,2.98,2.68,3.93,4.83.71,2.02,1.25,4.88,1.25,8.8s-.54,7.2-1.25,9.58ZM520.95,676.56c-.77,2.26-1.85,4.11-3.39,5.23-1.49,1.25-3.46,1.9-5.72,1.9-3.03,0-5.47-1.07-7.19-3.27-2.09-2.56-3.16-6.84-3.16-12.74,0-3.81.47-6.78,1.18-8.99.79-2.31,1.91-4.04,3.46-5.17,1.48-1.37,3.45-1.9,5.7-1.9,1.68,0,3.16.3,4.47.95,1.25.59,2.33,1.67,3.15,2.92.84,1.37,1.43,2.85,1.9,4.71.47,1.83.71,4.33.71,7.49,0,3.64-.42,6.67-1.13,8.87ZM551.34,683.17h-20.81c0-.9.12-1.91.48-2.62.54-1.43,1.42-2.92,2.61-4.23,1.13-1.43,2.8-2.92,5.01-4.82,3.38-2.86,5.7-4.94,6.95-6.66,1.19-1.61,1.85-3.1,1.85-4.64s-.6-2.8-1.72-3.81c-1.07-1.07-2.5-1.67-4.29-1.67s-3.33.6-4.47,1.73c-1.07,1.13-1.66,2.68-1.66,4.58l-4.05-.35c.35-2.92,1.31-5.24,3.09-6.79,1.79-1.6,4.16-2.26,7.21-2.26s5.41.77,7.13,2.44c1.78,1.73,2.67,3.8,2.67,6.24,0,1.19-.23,2.56-.77,3.75-.53,1.19-1.42,2.5-2.56,3.87-1.18,1.31-3.21,3.1-6.01,5.47-2.31,1.91-3.8,3.33-4.46,3.93-.6.77-1.18,1.42-1.6,2.2h15.39v3.64ZM519.52,595.45l1.01,8.34h-36.06l1.07-8.34h-113.06l14.11-17.31c11.96-.66,35.04-3.69,54.81-11.07,38.44-14.4,61.77,5.36,61.77,5.36,18.38-15.41,41.48-12.2,62.84-4.34,20.1,7.38,50.88,9.64,50.88,9.64l13.26,17.73h-110.61Z"/>
    </g>
  </g>
</svg>